<svg xmlns="http://www.w3.org/2000/svg" xmlns:xlink="http://www.w3.org/1999/xlink" xmlns:lucid="lucid" width="1440" height="824.67"><g transform="translate(-215.43307086614163 4.666666666666664)" lucid:page-tab-id="6I4mP-4cKjeY"><path d="M0 0h1870.87v1322.83H0z" fill="#fff"/><path d="M620 15.33h577.33V180H620z" fill="none"/><use xlink:href="#a" transform="matrix(1,0,0,1,620,15.333333333333336) translate(76.0370370370373 93.16666666666666)"/><use xlink:href="#b" transform="matrix(1,0,0,1,620,15.333333333333336) translate(327.4444444444444 93.16666666666666)"/><path d="M235.43 246c0-3.3 2.7-6 6-6h388c3.32 0 6 2.7 6 6v148c0 3.3-2.68 6-6 6h-388c-3.3 0-6-2.7-6-6z" stroke="#5e5e5e" stroke-width="3" fill="#fff"/><use xlink:href="#c" transform="matrix(1,0,0,1,240.43307086614163,245) translate(0 21.333333333333332)"/><use xlink:href="#d" transform="matrix(1,0,0,1,240.43307086614163,245) translate(82.96296296296295 21.333333333333332)"/><use xlink:href="#e" transform="matrix(1,0,0,1,240.43307086614163,245) translate(0 53.33333333333333)"/><use xlink:href="#f" transform="matrix(1,0,0,1,240.43307086614163,245) translate(122.81481481481478 53.33333333333333)"/><use xlink:href="#g" transform="matrix(1,0,0,1,240.43307086614163,245) translate(0 85.33333333333333)"/><use xlink:href="#h" transform="matrix(1,0,0,1,240.43307086614163,245) translate(137.55555555555554 85.33333333333333)"/><a xlink:href="http://user.created" target="_blank" transform="matrix(1,0,0,1,240.43307086614163,245)"><path class="lucid-link lucid-hotspot lucid-overlay-hotspot" fill-opacity="0" d="M82.96 0h156.8v32H82.97z"/></a><path d="M235.43 446c0-3.3 2.7-6 6-6h388c3.32 0 6 2.7 6 6v148c0 3.3-2.68 6-6 6h-388c-3.3 0-6-2.7-6-6z" stroke="#5e5e5e" stroke-width="3" fill="#fff"/><use xlink:href="#c" transform="matrix(1,0,0,1,240.43307086614163,445) translate(0 21.333333333333332)"/><use xlink:href="#i" transform="matrix(1,0,0,1,240.43307086614163,445) translate(82.96296296296295 21.333333333333332)"/><use xlink:href="#e" transform="matrix(1,0,0,1,240.43307086614163,445) translate(0 53.33333333333333)"/><use xlink:href="#f" transform="matrix(1,0,0,1,240.43307086614163,445) translate(122.81481481481478 53.33333333333333)"/><use xlink:href="#g" transform="matrix(1,0,0,1,240.43307086614163,445) translate(0 85.33333333333333)"/><use xlink:href="#h" transform="matrix(1,0,0,1,240.43307086614163,445) translate(137.55555555555554 85.33333333333333)"/><a xlink:href="http://user.authorized" target="_blank" transform="matrix(1,0,0,1,240.43307086614163,445)"><path class="lucid-link lucid-hotspot lucid-overlay-hotspot" fill-opacity="0" d="M82.96 0h196.6v32H82.95z"/></a><path d="M235.43 646c0-3.3 2.7-6 6-6h388c3.32 0 6 2.7 6 6v148c0 3.3-2.68 6-6 6h-388c-3.3 0-6-2.7-6-6z" stroke="#5e5e5e" stroke-width="3" fill="#fff"/><use xlink:href="#c" transform="matrix(1,0,0,1,240.43307086614163,645) translate(0 21.333333333333332)"/><use xlink:href="#j" transform="matrix(1,0,0,1,240.43307086614163,645) translate(82.96296296296295 21.333333333333332)"/><use xlink:href="#e" transform="matrix(1,0,0,1,240.43307086614163,645) translate(0 53.33333333333333)"/><use xlink:href="#f" transform="matrix(1,0,0,1,240.43307086614163,645) translate(122.81481481481478 53.33333333333333)"/><use xlink:href="#g" transform="matrix(1,0,0,1,240.43307086614163,645) translate(0 85.33333333333333)"/><use xlink:href="#h" transform="matrix(1,0,0,1,240.43307086614163,645) translate(137.55555555555554 85.33333333333333)"/><g transform="matrix(1,0,0,1,240.43307086614163,645)"><a xlink:href="http://user.created" target="_blank"><path class="lucid-link lucid-hotspot lucid-overlay-hotspot" fill-opacity="0" d="M82.96 0h62.15v32H82.97z"/></a><a xlink:href="http://user.created" target="_blank"><path class="lucid-link lucid-hotspot lucid-overlay-hotspot" fill-opacity="0" d="M145.1 0h16.23v32H145.1z"/></a></g><path d="M735.43 246c0-3.3 2.7-6 6-6h388c3.32 0 6 2.7 6 6v148c0 3.3-2.68 6-6 6h-388c-3.3 0-6-2.7-6-6z" stroke="#5e5e5e" stroke-width="3" fill="#fff"/><use xlink:href="#c" transform="matrix(1,0,0,1,740.4330708661416,245) translate(0 21.333333333333332)"/><use xlink:href="#k" transform="matrix(1,0,0,1,740.4330708661416,245) translate(82.96296296296295 21.333333333333332)"/><use xlink:href="#e" transform="matrix(1,0,0,1,740.4330708661416,245) translate(0 53.33333333333333)"/><use xlink:href="#l" transform="matrix(1,0,0,1,740.4330708661416,245) translate(122.81481481481478 53.33333333333333)"/><use xlink:href="#g" transform="matrix(1,0,0,1,740.4330708661416,245) translate(0 85.33333333333333)"/><use xlink:href="#m" transform="matrix(1,0,0,1,740.4330708661416,245) translate(137.55555555555554 85.33333333333333)"/><g transform="matrix(1,0,0,1,740.4330708661416,245)"><a xlink:href="http://user.created" target="_blank"><path class="lucid-link lucid-hotspot lucid-overlay-hotspot" fill-opacity="0" d="M82.96 0h8.8v32h-8.8z"/></a><a xlink:href="http://user.created" target="_blank"><path class="lucid-link lucid-hotspot lucid-overlay-hotspot" fill-opacity="0" d="M136.22 0H238.3v32H136.2z"/></a></g><path d="M735.43 446c0-3.3 2.7-6 6-6h388c3.32 0 6 2.7 6 6v148c0 3.3-2.68 6-6 6h-388c-3.3 0-6-2.7-6-6z" stroke="#5e5e5e" stroke-width="3" fill="#fff"/><g><use xlink:href="#c" transform="matrix(1,0,0,1,740.4330708661416,445) translate(0 21.333333333333332)"/><use xlink:href="#n" transform="matrix(1,0,0,1,740.4330708661416,445) translate(82.96296296296295 21.333333333333332)"/><use xlink:href="#e" transform="matrix(1,0,0,1,740.4330708661416,445) translate(0 53.33333333333333)"/><use xlink:href="#l" transform="matrix(1,0,0,1,740.4330708661416,445) translate(122.81481481481478 53.33333333333333)"/><use xlink:href="#g" transform="matrix(1,0,0,1,740.4330708661416,445) translate(0 85.33333333333333)"/><use xlink:href="#m" transform="matrix(1,0,0,1,740.4330708661416,445) translate(137.55555555555554 85.33333333333333)"/></g><g transform="matrix(1,0,0,1,740.4330708661416,445)"><a xlink:href="http://user.created" target="_blank"><path class="lucid-link lucid-hotspot lucid-overlay-hotspot" fill-opacity="0" d="M82.96 0h8.8v32h-8.8z"/></a><a xlink:href="http://user.created" target="_blank"><path class="lucid-link lucid-hotspot lucid-overlay-hotspot" fill-opacity="0" d="M136.22 0h7.4v32h-7.4z"/></a><a xlink:href="http://user.created" target="_blank"><path class="lucid-link lucid-hotspot lucid-overlay-hotspot" fill-opacity="0" d="M143.63 0h14.8v32h-14.8z"/></a></g><path d="M735.43 646c0-3.3 2.7-6 6-6h388c3.32 0 6 2.7 6 6v148c0 3.3-2.68 6-6 6h-388c-3.3 0-6-2.7-6-6z" stroke="#5e5e5e" stroke-width="3" fill="#fff"/><g><use xlink:href="#c" transform="matrix(1,0,0,1,740.4330708661416,645) translate(0 21.333333333333332)"/><use xlink:href="#o" transform="matrix(1,0,0,1,740.4330708661416,645) translate(82.96296296296295 21.333333333333332)"/><use xlink:href="#e" transform="matrix(1,0,0,1,740.4330708661416,645) translate(0 53.33333333333333)"/><use xlink:href="#l" transform="matrix(1,0,0,1,740.4330708661416,645) translate(122.81481481481478 53.33333333333333)"/><use xlink:href="#g" transform="matrix(1,0,0,1,740.4330708661416,645) translate(0 85.33333333333333)"/><use xlink:href="#m" transform="matrix(1,0,0,1,740.4330708661416,645) translate(137.55555555555554 85.33333333333333)"/></g><g transform="matrix(1,0,0,1,740.4330708661416,645)"><a xlink:href="http://user.created" target="_blank"><path class="lucid-link lucid-hotspot lucid-overlay-hotspot" fill-opacity="0" d="M82.96 0h8.8v32h-8.8z"/></a><a xlink:href="http://user.created" target="_blank"><path class="lucid-link lucid-hotspot lucid-overlay-hotspot" fill-opacity="0" d="M136.22 0h7.4v32h-7.4z"/></a></g><path d="M1235.43 246c0-3.3 2.7-6 6-6h388c3.32 0 6 2.7 6 6v148c0 3.3-2.68 6-6 6h-388c-3.3 0-6-2.7-6-6z" stroke="#5e5e5e" stroke-width="3" fill="#fff"/><g><use xlink:href="#c" transform="matrix(1,0,0,1,1240.4330708661416,245) translate(0 21.333333333333332)"/><use xlink:href="#p" transform="matrix(1,0,0,1,1240.4330708661416,245) translate(82.96296296296295 21.333333333333332)"/><use xlink:href="#e" transform="matrix(1,0,0,1,1240.4330708661416,245) translate(0 53.33333333333333)"/><use xlink:href="#q" transform="matrix(1,0,0,1,1240.4330708661416,245) translate(122.81481481481478 53.33333333333333)"/><use xlink:href="#g" transform="matrix(1,0,0,1,1240.4330708661416,245) translate(0 85.33333333333333)"/><use xlink:href="#r" transform="matrix(1,0,0,1,1240.4330708661416,245) translate(137.55555555555554 85.33333333333333)"/></g><g transform="matrix(1,0,0,1,1240.4330708661416,245)"><a xlink:href="http://user.created" target="_blank"><path class="lucid-link lucid-hotspot lucid-overlay-hotspot" fill-opacity="0" d="M184.9 0h7.4v32h-7.4z"/></a></g><path d="M1235.43 446c0-3.3 2.7-6 6-6h388c3.32 0 6 2.7 6 6v148c0 3.3-2.68 6-6 6h-388c-3.3 0-6-2.7-6-6z" stroke="#5e5e5e" stroke-width="3" fill="#fff"/><g><use xlink:href="#c" transform="matrix(1,0,0,1,1240.4330708661416,445) translate(0 21.333333333333332)"/><use xlink:href="#s" transform="matrix(1,0,0,1,1240.4330708661416,445) translate(82.96296296296295 21.333333333333332)"/><use xlink:href="#e" transform="matrix(1,0,0,1,1240.4330708661416,445) translate(0 53.33333333333333)"/><use xlink:href="#q" transform="matrix(1,0,0,1,1240.4330708661416,445) translate(122.81481481481478 53.33333333333333)"/><use xlink:href="#g" transform="matrix(1,0,0,1,1240.4330708661416,445) translate(0 85.33333333333333)"/><use xlink:href="#r" transform="matrix(1,0,0,1,1240.4330708661416,445) translate(137.55555555555554 85.33333333333333)"/></g><g transform="matrix(1,0,0,1,1240.4330708661416,445)"><a xlink:href="http://user.created" target="_blank"><path class="lucid-link lucid-hotspot lucid-overlay-hotspot" fill-opacity="0" d="M184.9 0h7.4v32h-7.4z"/></a></g><path d="M1235.43 646c0-3.3 2.7-6 6-6h388c3.32 0 6 2.7 6 6v148c0 3.3-2.68 6-6 6h-388c-3.3 0-6-2.7-6-6z" stroke="#5e5e5e" stroke-width="3" fill="#fff"/><g><use xlink:href="#c" transform="matrix(1,0,0,1,1240.4330708661416,645) translate(0 21.333333333333332)"/><use xlink:href="#t" transform="matrix(1,0,0,1,1240.4330708661416,645) translate(82.96296296296295 21.333333333333332)"/><use xlink:href="#e" transform="matrix(1,0,0,1,1240.4330708661416,645) translate(0 53.33333333333333)"/><use xlink:href="#q" transform="matrix(1,0,0,1,1240.4330708661416,645) translate(122.81481481481478 53.33333333333333)"/><use xlink:href="#g" transform="matrix(1,0,0,1,1240.4330708661416,645) translate(0 85.33333333333333)"/><use xlink:href="#u" transform="matrix(1,0,0,1,1240.4330708661416,645) translate(137.55555555555554 85.33333333333333)"/><use xlink:href="#v" transform="matrix(1,0,0,1,1240.4330708661416,645) translate(235.037037037037 85.33333333333333)"/><use xlink:href="#w" transform="matrix(1,0,0,1,1240.4330708661416,645) translate(289.7037037037037 85.33333333333333)"/></g><g transform="matrix(1,0,0,1,1240.4330708661416,645)"><a xlink:href="http://user.created" target="_blank"><path class="lucid-link lucid-hotspot lucid-overlay-hotspot" fill-opacity="0" d="M184.9 0h7.4v32h-7.4z"/></a></g><path d="M280 166c0-3.3 2.7-6 6-6h228c3.3 0 6 2.7 6 6v48c0 3.3-2.7 6-6 6H286c-3.3 0-6-2.7-6-6z" stroke="#000" stroke-opacity="0" stroke-width="3" fill="#fff" fill-opacity="0"/><g><use xlink:href="#x" transform="matrix(1,0,0,1,285,165) translate(73.8888888888889 35.124999999999986)"/></g><path d="M800 166c0-3.3 2.7-6 6-6h228c3.3 0 6 2.7 6 6v48c0 3.3-2.7 6-6 6H806c-3.3 0-6-2.7-6-6z" stroke="#000" stroke-opacity="0" stroke-width="3" fill="#fff" fill-opacity="0"/><g><use xlink:href="#y" transform="matrix(1,0,0,1,805,165) translate(56.22222222222224 35.124999999999986)"/></g><path d="M1300 166c0-3.3 2.7-6 6-6h228c3.3 0 6 2.7 6 6v48c0 3.3-2.7 6-6 6h-228c-3.3 0-6-2.7-6-6z" stroke="#000" stroke-opacity="0" stroke-width="3" fill="#fff" fill-opacity="0"/><g><use xlink:href="#z" transform="matrix(1,0,0,1,1305,165) translate(16.166666666666686 35.124999999999986)"/></g><defs><path fill="#333" d="M182-130c37 4 62 22 62 59C244 23 116-4 24 0v-248c84 5 203-23 205 63 0 31-19 50-47 55zM76-148c40-3 101 13 101-30 0-44-60-28-101-31v61zm0 110c48-3 116 14 116-37 0-48-69-32-116-35v72" id="A"/><path fill="#333" d="M85 4C-2 5 27-109 22-190h50c7 57-23 150 33 157 60-5 35-97 40-157h50l1 190h-47c-2-12 1-28-3-38-12 25-28 42-61 42" id="B"/><path fill="#333" d="M137-138c1-29-70-34-71-4 15 46 118 7 119 86 1 83-164 76-172 9l43-7c4 19 20 25 44 25 33 8 57-30 24-41C81-84 22-81 20-136c-2-80 154-74 161-7" id="C"/><path fill="#333" d="M25-224v-37h50v37H25zM25 0v-190h50V0H25" id="D"/><path fill="#333" d="M135-194c87-1 58 113 63 194h-50c-7-57 23-157-34-157-59 0-34 97-39 157H25l-1-190h47c2 12-1 28 3 38 12-26 28-41 61-42" id="E"/><path fill="#333" d="M185-48c-13 30-37 53-82 52C43 2 14-33 14-96s30-98 90-98c62 0 83 45 84 108H66c0 31 8 55 39 56 18 0 30-7 34-22zm-45-69c5-46-57-63-70-21-2 6-4 13-4 21h74" id="F"/><g id="a"><use transform="matrix(0.14814814814814797,0,0,0.14814814814814797,0,0)" xlink:href="#A"/><use transform="matrix(0.14814814814814797,0,0,0.14814814814814797,38.370370370370324,0)" xlink:href="#B"/><use transform="matrix(0.14814814814814797,0,0,0.14814814814814797,70.81481481481472,0)" xlink:href="#C"/><use transform="matrix(0.14814814814814797,0,0,0.14814814814814797,100.44444444444431,0)" xlink:href="#D"/><use transform="matrix(0.14814814814814797,0,0,0.14814814814814797,115.25925925925911,0)" xlink:href="#E"/><use transform="matrix(0.14814814814814797,0,0,0.14814814814814797,147.70370370370352,0)" xlink:href="#F"/><use transform="matrix(0.14814814814814797,0,0,0.14814814814814797,177.33333333333312,0)" xlink:href="#C"/><use transform="matrix(0.14814814814814797,0,0,0.14814814814814797,206.9629629629627,0)" xlink:href="#C"/></g><path fill="#333" d="M24 0v-248h195v40H76v63h132v40H76v65h150V0H24" id="G"/><path fill="#333" d="M128 0H69L1-190h53L99-40l48-150h52" id="H"/><path fill="#333" d="M115-3C79 11 28 4 28-45v-112H4v-33h27l15-45h31v45h36v33H77v99c-1 23 16 31 38 25v30" id="I"/><g id="b"><use transform="matrix(0.14814814814814797,0,0,0.14814814814814797,0,0)" xlink:href="#G"/><use transform="matrix(0.14814814814814797,0,0,0.14814814814814797,35.555555555555515,0)" xlink:href="#H"/><use transform="matrix(0.14814814814814797,0,0,0.14814814814814797,65.1851851851851,0)" xlink:href="#F"/><use transform="matrix(0.14814814814814797,0,0,0.14814814814814797,94.8148148148147,0)" xlink:href="#E"/><use transform="matrix(0.14814814814814797,0,0,0.14814814814814797,127.2592592592591,0)" xlink:href="#I"/><use transform="matrix(0.14814814814814797,0,0,0.14814814814814797,144.88888888888872,0)" xlink:href="#C"/></g><path fill="#333" d="M30 0v-248h187v28H63v79h144v27H63v87h162V0H30" id="J"/><path fill="#333" d="M108 0H70L1-190h34L89-25l56-165h34" id="K"/><path fill="#333" d="M100-194c63 0 86 42 84 106H49c0 40 14 67 53 68 26 1 43-12 49-29l28 8c-11 28-37 45-77 45C44 4 14-33 15-96c1-61 26-98 85-98zm52 81c6-60-76-77-97-28-3 7-6 17-6 28h103" id="L"/><path fill="#333" d="M117-194c89-4 53 116 60 194h-32v-121c0-31-8-49-39-48C34-167 62-67 57 0H25l-1-190h30c1 10-1 24 2 32 11-22 29-35 61-36" id="M"/><path fill="#333" d="M59-47c-2 24 18 29 38 22v24C64 9 27 4 27-40v-127H5v-23h24l9-43h21v43h35v23H59v120" id="N"/><path fill="#333" d="M33-154v-36h34v36H33zM33 0v-36h34V0H33" id="O"/><g id="c"><use transform="matrix(0.07407407407407407,0,0,0.07407407407407407,0,0)" xlink:href="#J"/><use transform="matrix(0.07407407407407407,0,0,0.07407407407407407,17.77777777777778,0)" xlink:href="#K"/><use transform="matrix(0.07407407407407407,0,0,0.07407407407407407,31.11111111111111,0)" xlink:href="#L"/><use transform="matrix(0.07407407407407407,0,0,0.07407407407407407,45.925925925925924,0)" xlink:href="#M"/><use transform="matrix(0.07407407407407407,0,0,0.07407407407407407,60.74074074074074,0)" xlink:href="#N"/><use transform="matrix(0.07407407407407407,0,0,0.07407407407407407,68.14814814814814,0)" xlink:href="#O"/></g><path fill="#333" d="M135-150c-39-12-60 13-60 57V0H25l-1-190h47c2 13-1 29 3 40 6-28 27-53 61-41v41" id="P"/><path fill="#333" d="M24 0v-54h51V0H24" id="Q"/><path fill="#333" d="M190-63c-7 42-38 67-86 67-59 0-84-38-90-98-12-110 154-137 174-36l-49 2c-2-19-15-32-35-32-30 0-35 28-38 64-6 74 65 87 74 30" id="R"/><path fill="#333" d="M133-34C117-15 103 5 69 4 32 3 11-16 11-54c-1-60 55-63 116-61 1-26-3-47-28-47-18 1-26 9-28 27l-52-2c7-38 36-58 82-57s74 22 75 68l1 82c-1 14 12 18 25 15v27c-30 8-71 5-69-32zm-48 3c29 0 43-24 42-57-32 0-66-3-65 30 0 17 8 27 23 27" id="S"/><path fill="#333" d="M88-194c31-1 46 15 58 34l-1-101h50l1 261h-48c-2-10 0-23-3-31C134-8 116 4 84 4 32 4 16-41 15-95c0-56 19-97 73-99zm17 164c33 0 40-30 41-66 1-37-9-64-41-64s-38 30-39 65c0 43 13 65 39 65" id="T"/><g id="d"><use transform="matrix(0.07407407407407407,0,0,0.07407407407407407,0,0)" xlink:href="#B"/><use transform="matrix(0.07407407407407407,0,0,0.07407407407407407,16.22222222222222,0)" xlink:href="#C"/><use transform="matrix(0.07407407407407407,0,0,0.07407407407407407,31.037037037037035,0)" xlink:href="#F"/><use transform="matrix(0.07407407407407407,0,0,0.07407407407407407,45.85185185185185,0)" xlink:href="#P"/><use transform="matrix(0.07407407407407407,0,0,0.07407407407407407,54.740740740740726,0)" xlink:href="#Q"/><use transform="matrix(0.07407407407407407,0,0,0.07407407407407407,62.14814814814814,0)" xlink:href="#R"/><use transform="matrix(0.07407407407407407,0,0,0.07407407407407407,76.96296296296295,0)" xlink:href="#P"/><use transform="matrix(0.07407407407407407,0,0,0.07407407407407407,87.33333333333331,0)" xlink:href="#F"/><use transform="matrix(0.07407407407407407,0,0,0.07407407407407407,102.14814814814812,0)" xlink:href="#S"/><use transform="matrix(0.07407407407407407,0,0,0.07407407407407407,116.96296296296293,0)" xlink:href="#I"/><use transform="matrix(0.07407407407407407,0,0,0.07407407407407407,125.77777777777774,0)" xlink:href="#F"/><use transform="matrix(0.07407407407407407,0,0,0.07407407407407407,140.59259259259255,0)" xlink:href="#T"/><path fill="#8080ff" d="M-1.33 1.43h159.48v2.8H-1.33z"/></g><path fill="#333" d="M30-248c87 1 191-15 191 75 0 78-77 80-158 76V0H30v-248zm33 125c57 0 124 11 124-50 0-59-68-47-124-48v98" id="U"/><path fill="#333" d="M114-163C36-179 61-72 57 0H25l-1-190h30c1 12-1 29 2 39 6-27 23-49 58-41v29" id="V"/><path fill="#333" d="M100-194c62-1 85 37 85 99 1 63-27 99-86 99S16-35 15-95c0-66 28-99 85-99zM99-20c44 1 53-31 53-75 0-43-8-75-51-75s-53 32-53 75 10 74 51 75" id="W"/><path fill="#333" d="M85-194c31 0 48 13 60 33l-1-100h32l1 261h-30c-2-10 0-23-3-31C134-8 116 4 85 4 32 4 16-35 15-94c0-66 23-100 70-100zm9 24c-40 0-46 34-46 75 0 40 6 74 45 74 42 0 51-32 51-76 0-42-9-74-50-73" id="X"/><path fill="#333" d="M84 4C-5 8 30-112 23-190h32v120c0 31 7 50 39 49 72-2 45-101 50-169h31l1 190h-30c-1-10 1-25-2-33-11 22-28 36-60 37" id="Y"/><path fill="#333" d="M96-169c-40 0-48 33-48 73s9 75 48 75c24 0 41-14 43-38l32 2c-6 37-31 61-74 61-59 0-76-41-82-99-10-93 101-131 147-64 4 7 5 14 7 22l-32 3c-4-21-16-35-41-35" id="Z"/><g id="e"><use transform="matrix(0.07407407407407407,0,0,0.07407407407407407,0,0)" xlink:href="#U"/><use transform="matrix(0.07407407407407407,0,0,0.07407407407407407,17.77777777777778,0)" xlink:href="#V"/><use transform="matrix(0.07407407407407407,0,0,0.07407407407407407,26.592592592592595,0)" xlink:href="#W"/><use transform="matrix(0.07407407407407407,0,0,0.07407407407407407,41.407407407407405,0)" xlink:href="#X"/><use transform="matrix(0.07407407407407407,0,0,0.07407407407407407,56.22222222222221,0)" xlink:href="#Y"/><use transform="matrix(0.07407407407407407,0,0,0.07407407407407407,71.03703703703702,0)" xlink:href="#Z"/><use transform="matrix(0.07407407407407407,0,0,0.07407407407407407,84.37037037037035,0)" xlink:href="#L"/><use transform="matrix(0.07407407407407407,0,0,0.07407407407407407,99.18518518518516,0)" xlink:href="#V"/><use transform="matrix(0.07407407407407407,0,0,0.07407407407407407,107.99999999999997,0)" xlink:href="#O"/></g><path fill="#333" d="M199 0l-22-63H83L61 0H9l90-248h61L250 0h-51zm-33-102l-36-108c-10 38-24 72-36 108h72" id="aa"/><path fill="#333" d="M114-157C55-157 80-60 75 0H25v-261h50l-1 109c12-26 28-41 61-42 86-1 58 113 63 194h-50c-7-57 23-157-34-157" id="ab"/><g id="f"><use transform="matrix(0.07407407407407407,0,0,0.07407407407407407,0,0)" xlink:href="#aa"/><use transform="matrix(0.07407407407407407,0,0,0.07407407407407407,19.185185185185183,0)" xlink:href="#B"/><use transform="matrix(0.07407407407407407,0,0,0.07407407407407407,35.407407407407405,0)" xlink:href="#I"/><use transform="matrix(0.07407407407407407,0,0,0.07407407407407407,44.22222222222222,0)" xlink:href="#ab"/></g><path fill="#333" d="M212-179c-10-28-35-45-73-45-59 0-87 40-87 99 0 60 29 101 89 101 43 0 62-24 78-52l27 14C228-24 195 4 139 4 59 4 22-46 18-125c-6-104 99-153 187-111 19 9 31 26 39 46" id="ac"/><path fill="#333" d="M135-143c-3-34-86-38-87 0 15 53 115 12 119 90S17 21 10-45l28-5c4 36 97 45 98 0-10-56-113-15-118-90-4-57 82-63 122-42 12 7 21 19 24 35" id="ad"/><path fill="#333" d="M210-169c-67 3-38 105-44 169h-31v-121c0-29-5-50-35-48C34-165 62-65 56 0H25l-1-190h30c1 10-1 24 2 32 10-44 99-50 107 0 11-21 27-35 58-36 85-2 47 119 55 194h-31v-121c0-29-5-49-35-48" id="ae"/><g id="g"><use transform="matrix(0.07407407407407407,0,0,0.07407407407407407,0,0)" xlink:href="#ac"/><use transform="matrix(0.07407407407407407,0,0,0.07407407407407407,19.185185185185183,0)" xlink:href="#W"/><use transform="matrix(0.07407407407407407,0,0,0.07407407407407407,34,0)" xlink:href="#M"/><use transform="matrix(0.07407407407407407,0,0,0.07407407407407407,48.81481481481481,0)" xlink:href="#ad"/><use transform="matrix(0.07407407407407407,0,0,0.07407407407407407,62.14814814814814,0)" xlink:href="#Y"/><use transform="matrix(0.07407407407407407,0,0,0.07407407407407407,76.96296296296295,0)" xlink:href="#ae"/><use transform="matrix(0.07407407407407407,0,0,0.07407407407407407,99.11111111111109,0)" xlink:href="#L"/><use transform="matrix(0.07407407407407407,0,0,0.07407407407407407,113.92592592592591,0)" xlink:href="#V"/><use transform="matrix(0.07407407407407407,0,0,0.07407407407407407,122.7407407407407,0)" xlink:href="#O"/></g><path fill="#333" d="M110-251c83-7 118 89 53 130-17 10-36 21-38 46H78c2-56 65-53 71-103 2-21-15-35-38-34-25 1-41 14-44 38l-50-2c6-48 39-70 93-75zM77 0v-47h51V0H77" id="af"/><use transform="matrix(0.07407407407407407,0,0,0.07407407407407407,0,0)" xlink:href="#af" id="h"/><path fill="#333" d="M110-194c64 0 96 36 96 99 0 64-35 99-97 99-61 0-95-36-95-99 0-62 34-99 96-99zm-1 164c35 0 45-28 45-65 0-40-10-65-43-65-34 0-45 26-45 65 0 36 10 65 43 65" id="ag"/><path fill="#333" d="M12 0v-35l95-120H19v-35h142v35L67-36h103V0H12" id="ah"/><g id="i"><use transform="matrix(0.07407407407407407,0,0,0.07407407407407407,0,0)" xlink:href="#B"/><use transform="matrix(0.07407407407407407,0,0,0.07407407407407407,16.22222222222222,0)" xlink:href="#C"/><use transform="matrix(0.07407407407407407,0,0,0.07407407407407407,31.037037037037035,0)" xlink:href="#F"/><use transform="matrix(0.07407407407407407,0,0,0.07407407407407407,45.85185185185185,0)" xlink:href="#P"/><use transform="matrix(0.07407407407407407,0,0,0.07407407407407407,54.740740740740726,0)" xlink:href="#Q"/><use transform="matrix(0.07407407407407407,0,0,0.07407407407407407,62.14814814814814,0)" xlink:href="#S"/><use transform="matrix(0.07407407407407407,0,0,0.07407407407407407,76.96296296296295,0)" xlink:href="#B"/><use transform="matrix(0.07407407407407407,0,0,0.07407407407407407,93.18518518518516,0)" xlink:href="#I"/><use transform="matrix(0.07407407407407407,0,0,0.07407407407407407,101.99999999999997,0)" xlink:href="#ab"/><use transform="matrix(0.07407407407407407,0,0,0.07407407407407407,118.2222222222222,0)" xlink:href="#ag"/><use transform="matrix(0.07407407407407407,0,0,0.07407407407407407,134.44444444444443,0)" xlink:href="#P"/><use transform="matrix(0.07407407407407407,0,0,0.07407407407407407,144.8148148148148,0)" xlink:href="#D"/><use transform="matrix(0.07407407407407407,0,0,0.07407407407407407,152.2222222222222,0)" xlink:href="#ah"/><use transform="matrix(0.07407407407407407,0,0,0.07407407407407407,165.55555555555557,0)" xlink:href="#F"/><use transform="matrix(0.07407407407407407,0,0,0.07407407407407407,180.37037037037038,0)" xlink:href="#T"/><path fill="#8080ff" d="M-1.33 1.43h199.26v2.8H-1.33z"/></g><g id="j"><use transform="matrix(0.07407407407407407,0,0,0.07407407407407407,0,0)" xlink:href="#B"/><use transform="matrix(0.07407407407407407,0,0,0.07407407407407407,16.22222222222222,0)" xlink:href="#C"/><use transform="matrix(0.07407407407407407,0,0,0.07407407407407407,31.037037037037035,0)" xlink:href="#F"/><use transform="matrix(0.07407407407407407,0,0,0.07407407407407407,45.85185185185185,0)" xlink:href="#P"/><use transform="matrix(0.07407407407407407,0,0,0.07407407407407407,54.740740740740726,0)" xlink:href="#Q"/><path fill="#8080ff" d="M-1.33 1.43h64.8v2.8h-64.8z"/><use transform="matrix(0.07407407407407407,0,0,0.07407407407407407,62.14814814814814,0)" xlink:href="#T"/><path fill="#8080ff" d="M60.8 1.43h18.9v2.8H60.8z"/><use transform="matrix(0.07407407407407407,0,0,0.07407407407407407,78.37037037037035,0)" xlink:href="#F"/><use transform="matrix(0.07407407407407407,0,0,0.07407407407407407,93.18518518518516,0)" xlink:href="#E"/><use transform="matrix(0.07407407407407407,0,0,0.07407407407407407,109.40740740740739,0)" xlink:href="#D"/><use transform="matrix(0.07407407407407407,0,0,0.07407407407407407,116.8148148148148,0)" xlink:href="#F"/><use transform="matrix(0.07407407407407407,0,0,0.07407407407407407,131.62962962962962,0)" xlink:href="#T"/></g><path fill="#333" d="M147 0L96-86 75-71V0H25v-261h50v150l67-79h53l-66 74L201 0h-54" id="ai"/><g id="k"><use transform="matrix(0.07407407407407407,0,0,0.07407407407407407,0,0)" xlink:href="#I"/><path fill="#8080ff" d="M-1.33 1.43h11.48v2.8H-1.33z"/><use transform="matrix(0.07407407407407407,0,0,0.07407407407407407,8.814814814814815,0)" xlink:href="#S"/><use transform="matrix(0.07407407407407407,0,0,0.07407407407407407,23.629629629629623,0)" xlink:href="#C"/><use transform="matrix(0.07407407407407407,0,0,0.07407407407407407,38.44444444444444,0)" xlink:href="#ai"/><use transform="matrix(0.07407407407407407,0,0,0.07407407407407407,53.25925925925926,0)" xlink:href="#Q"/><use transform="matrix(0.07407407407407407,0,0,0.07407407407407407,60.66666666666666,0)" xlink:href="#R"/><use transform="matrix(0.07407407407407407,0,0,0.07407407407407407,75.48148148148147,0)" xlink:href="#P"/><use transform="matrix(0.07407407407407407,0,0,0.07407407407407407,85.85185185185183,0)" xlink:href="#F"/><use transform="matrix(0.07407407407407407,0,0,0.07407407407407407,100.66666666666664,0)" xlink:href="#S"/><use transform="matrix(0.07407407407407407,0,0,0.07407407407407407,115.48148148148145,0)" xlink:href="#I"/><use transform="matrix(0.07407407407407407,0,0,0.07407407407407407,124.29629629629626,0)" xlink:href="#F"/><use transform="matrix(0.07407407407407407,0,0,0.07407407407407407,139.1111111111111,0)" xlink:href="#T"/><path fill="#8080ff" d="M51.93 1.43h104.74v2.8H51.93z"/></g><path fill="#333" d="M136-208V0H84v-208H4v-40h212v40h-80" id="aj"/><g id="l"><use transform="matrix(0.07407407407407407,0,0,0.07407407407407407,0,0)" xlink:href="#aj"/><use transform="matrix(0.07407407407407407,0,0,0.07407407407407407,14.222222222222221,0)" xlink:href="#S"/><use transform="matrix(0.07407407407407407,0,0,0.07407407407407407,29.037037037037035,0)" xlink:href="#C"/><use transform="matrix(0.07407407407407407,0,0,0.07407407407407407,43.85185185185185,0)" xlink:href="#ai"/><use transform="matrix(0.07407407407407407,0,0,0.07407407407407407,58.66666666666666,0)" xlink:href="#F"/><use transform="matrix(0.07407407407407407,0,0,0.07407407407407407,73.48148148148147,0)" xlink:href="#P"/></g><path fill="#333" d="M195-6C206 82 75 100 31 46c-4-6-6-13-8-21l49-6c3 16 16 24 34 25 40 0 42-37 40-79-11 22-30 35-61 35-53 0-70-43-70-97 0-56 18-96 73-97 30 0 46 14 59 34l2-30h47zm-90-29c32 0 41-27 41-63 0-35-9-62-40-62-32 0-39 29-40 63 0 36 9 62 39 62" id="ak"/><g id="m"><use transform="matrix(0.07407407407407407,0,0,0.07407407407407407,0,0)" xlink:href="#aa"/><use transform="matrix(0.07407407407407407,0,0,0.07407407407407407,19.185185185185183,0)" xlink:href="#R"/><use transform="matrix(0.07407407407407407,0,0,0.07407407407407407,34,0)" xlink:href="#R"/><use transform="matrix(0.07407407407407407,0,0,0.07407407407407407,48.81481481481481,0)" xlink:href="#ag"/><use transform="matrix(0.07407407407407407,0,0,0.07407407407407407,65.03703703703704,0)" xlink:href="#B"/><use transform="matrix(0.07407407407407407,0,0,0.07407407407407407,81.25925925925927,0)" xlink:href="#E"/><use transform="matrix(0.07407407407407407,0,0,0.07407407407407407,97.4814814814815,0)" xlink:href="#I"/><use transform="matrix(0.07407407407407407,0,0,0.07407407407407407,106.2962962962963,0)" xlink:href="#D"/><use transform="matrix(0.07407407407407407,0,0,0.07407407407407407,113.70370370370371,0)" xlink:href="#E"/><use transform="matrix(0.07407407407407407,0,0,0.07407407407407407,129.92592592592592,0)" xlink:href="#ak"/></g><g id="n"><use transform="matrix(0.07407407407407407,0,0,0.07407407407407407,0,0)" xlink:href="#I"/><path fill="#8080ff" d="M-1.33 1.43h11.48v2.8H-1.33z"/><use transform="matrix(0.07407407407407407,0,0,0.07407407407407407,8.814814814814815,0)" xlink:href="#S"/><use transform="matrix(0.07407407407407407,0,0,0.07407407407407407,23.629629629629623,0)" xlink:href="#C"/><use transform="matrix(0.07407407407407407,0,0,0.07407407407407407,38.44444444444444,0)" xlink:href="#ai"/><use transform="matrix(0.07407407407407407,0,0,0.07407407407407407,53.25925925925926,0)" xlink:href="#Q"/><path fill="#8080ff" d="M51.93 1.43H62v2.8H51.93z"/><use transform="matrix(0.07407407407407407,0,0,0.07407407407407407,60.66666666666666,0)" xlink:href="#S"/><path fill="#8080ff" d="M59.33 1.43H76.8v2.8H59.34z"/><use transform="matrix(0.07407407407407407,0,0,0.07407407407407407,75.48148148148147,0)" xlink:href="#C"/><use transform="matrix(0.07407407407407407,0,0,0.07407407407407407,90.29629629629628,0)" xlink:href="#C"/><use transform="matrix(0.07407407407407407,0,0,0.07407407407407407,105.11111111111109,0)" xlink:href="#D"/><use transform="matrix(0.07407407407407407,0,0,0.07407407407407407,112.51851851851849,0)" xlink:href="#ak"/><use transform="matrix(0.07407407407407407,0,0,0.07407407407407407,128.7407407407407,0)" xlink:href="#E"/><use transform="matrix(0.07407407407407407,0,0,0.07407407407407407,144.96296296296293,0)" xlink:href="#F"/><use transform="matrix(0.07407407407407407,0,0,0.07407407407407407,159.77777777777774,0)" xlink:href="#T"/></g><path fill="#333" d="M220-157c-53 9-28 100-34 157h-49v-107c1-27-5-49-29-50C55-147 81-57 75 0H25l-1-190h47c2 12-1 28 3 38 10-53 101-56 108 0 13-22 24-43 59-42 82 1 51 116 57 194h-49v-107c-1-25-5-48-29-50" id="al"/><path fill="#333" d="M135-194c53 0 70 44 70 98 0 56-19 98-73 100-31 1-45-17-59-34 3 33 2 69 2 105H25l-1-265h48c2 10 0 23 3 31 11-24 29-35 60-35zM114-30c33 0 39-31 40-66 0-38-9-64-40-64-56 0-55 130 0 130" id="am"/><path fill="#333" d="M25 0v-261h50V0H25" id="an"/><g id="o"><use transform="matrix(0.07407407407407407,0,0,0.07407407407407407,0,0)" xlink:href="#I"/><path fill="#8080ff" d="M-1.33 1.43h11.48v2.8H-1.33z"/><use transform="matrix(0.07407407407407407,0,0,0.07407407407407407,8.814814814814815,0)" xlink:href="#S"/><use transform="matrix(0.07407407407407407,0,0,0.07407407407407407,23.629629629629623,0)" xlink:href="#C"/><use transform="matrix(0.07407407407407407,0,0,0.07407407407407407,38.44444444444444,0)" xlink:href="#ai"/><use transform="matrix(0.07407407407407407,0,0,0.07407407407407407,53.25925925925926,0)" xlink:href="#Q"/><path fill="#8080ff" d="M51.93 1.43H62v2.8H51.93z"/><use transform="matrix(0.07407407407407407,0,0,0.07407407407407407,60.66666666666666,0)" xlink:href="#R"/><use transform="matrix(0.07407407407407407,0,0,0.07407407407407407,75.48148148148147,0)" xlink:href="#ag"/><use transform="matrix(0.07407407407407407,0,0,0.07407407407407407,91.7037037037037,0)" xlink:href="#al"/><use transform="matrix(0.07407407407407407,0,0,0.07407407407407407,115.40740740740739,0)" xlink:href="#am"/><use transform="matrix(0.07407407407407407,0,0,0.07407407407407407,131.62962962962962,0)" xlink:href="#an"/><use transform="matrix(0.07407407407407407,0,0,0.07407407407407407,139.03703703703704,0)" xlink:href="#F"/><use transform="matrix(0.07407407407407407,0,0,0.07407407407407407,153.85185185185185,0)" xlink:href="#I"/><use transform="matrix(0.07407407407407407,0,0,0.07407407407407407,162.66666666666666,0)" xlink:href="#F"/><use transform="matrix(0.07407407407407407,0,0,0.07407407407407407,177.48148148148147,0)" xlink:href="#T"/></g><path fill="#333" d="M121-226c-27-7-43 5-38 36h38v33H83V0H34v-157H6v-33h28c-9-59 32-81 87-68v32" id="ao"/><g id="p"><use transform="matrix(0.07407407407407407,0,0,0.07407407407407407,0,0)" xlink:href="#S"/><use transform="matrix(0.07407407407407407,0,0,0.07407407407407407,14.814814814814813,0)" xlink:href="#R"/><use transform="matrix(0.07407407407407407,0,0,0.07407407407407407,29.629629629629626,0)" xlink:href="#R"/><use transform="matrix(0.07407407407407407,0,0,0.07407407407407407,44.44444444444444,0)" xlink:href="#ag"/><use transform="matrix(0.07407407407407407,0,0,0.07407407407407407,60.666666666666664,0)" xlink:href="#B"/><use transform="matrix(0.07407407407407407,0,0,0.07407407407407407,76.88888888888889,0)" xlink:href="#E"/><use transform="matrix(0.07407407407407407,0,0,0.07407407407407407,93.1111111111111,0)" xlink:href="#I"/><use transform="matrix(0.07407407407407407,0,0,0.07407407407407407,101.92592592592592,0)" xlink:href="#Q"/><path fill="#8080ff" d="M100.6 1.43h10.06v2.8H100.6z"/><use transform="matrix(0.07407407407407407,0,0,0.07407407407407407,109.33333333333333,0)" xlink:href="#ao"/><use transform="matrix(0.07407407407407407,0,0,0.07407407407407407,118.14814814814814,0)" xlink:href="#D"/><use transform="matrix(0.07407407407407407,0,0,0.07407407407407407,125.55555555555554,0)" xlink:href="#E"/><use transform="matrix(0.07407407407407407,0,0,0.07407407407407407,141.77777777777777,0)" xlink:href="#F"/><use transform="matrix(0.07407407407407407,0,0,0.07407407407407407,156.59259259259258,0)" xlink:href="#T"/></g><g id="q"><use transform="matrix(0.07407407407407407,0,0,0.07407407407407407,0,0)" xlink:href="#aa"/><use transform="matrix(0.07407407407407407,0,0,0.07407407407407407,19.185185185185183,0)" xlink:href="#R"/><use transform="matrix(0.07407407407407407,0,0,0.07407407407407407,34,0)" xlink:href="#R"/><use transform="matrix(0.07407407407407407,0,0,0.07407407407407407,48.81481481481481,0)" xlink:href="#ag"/><use transform="matrix(0.07407407407407407,0,0,0.07407407407407407,65.03703703703704,0)" xlink:href="#B"/><use transform="matrix(0.07407407407407407,0,0,0.07407407407407407,81.25925925925927,0)" xlink:href="#E"/><use transform="matrix(0.07407407407407407,0,0,0.07407407407407407,97.4814814814815,0)" xlink:href="#I"/><use transform="matrix(0.07407407407407407,0,0,0.07407407407407407,106.2962962962963,0)" xlink:href="#D"/><use transform="matrix(0.07407407407407407,0,0,0.07407407407407407,113.70370370370371,0)" xlink:href="#E"/><use transform="matrix(0.07407407407407407,0,0,0.07407407407407407,129.92592592592592,0)" xlink:href="#ak"/></g><path fill="#333" d="M24 0v-248h52v208h133V0H24" id="ap"/><g id="r"><use transform="matrix(0.07407407407407407,0,0,0.07407407407407407,0,0)" xlink:href="#ap"/><use transform="matrix(0.07407407407407407,0,0,0.07407407407407407,16.22222222222222,0)" xlink:href="#ag"/><use transform="matrix(0.07407407407407407,0,0,0.07407407407407407,32.44444444444444,0)" xlink:href="#ak"/><use transform="matrix(0.07407407407407407,0,0,0.07407407407407407,48.666666666666664,0)" xlink:href="#ak"/><use transform="matrix(0.07407407407407407,0,0,0.07407407407407407,64.88888888888889,0)" xlink:href="#F"/><use transform="matrix(0.07407407407407407,0,0,0.07407407407407407,79.7037037037037,0)" xlink:href="#P"/></g><path fill="#333" d="M231 0h-52l-39-155L100 0H48L-1-190h46L77-45c9-52 24-97 36-145h53l37 145 32-145h46" id="aq"/><g id="s"><use transform="matrix(0.07407407407407407,0,0,0.07407407407407407,0,0)" xlink:href="#S"/><use transform="matrix(0.07407407407407407,0,0,0.07407407407407407,14.814814814814813,0)" xlink:href="#R"/><use transform="matrix(0.07407407407407407,0,0,0.07407407407407407,29.629629629629626,0)" xlink:href="#R"/><use transform="matrix(0.07407407407407407,0,0,0.07407407407407407,44.44444444444444,0)" xlink:href="#ag"/><use transform="matrix(0.07407407407407407,0,0,0.07407407407407407,60.666666666666664,0)" xlink:href="#B"/><use transform="matrix(0.07407407407407407,0,0,0.07407407407407407,76.88888888888889,0)" xlink:href="#E"/><use transform="matrix(0.07407407407407407,0,0,0.07407407407407407,93.1111111111111,0)" xlink:href="#I"/><use transform="matrix(0.07407407407407407,0,0,0.07407407407407407,101.92592592592592,0)" xlink:href="#Q"/><path fill="#8080ff" d="M100.6 1.43h10.06v2.8H100.6z"/><use transform="matrix(0.07407407407407407,0,0,0.07407407407407407,109.33333333333333,0)" xlink:href="#P"/><use transform="matrix(0.07407407407407407,0,0,0.07407407407407407,119.7037037037037,0)" xlink:href="#F"/><use transform="matrix(0.07407407407407407,0,0,0.07407407407407407,134.5185185185185,0)" xlink:href="#aq"/><use transform="matrix(0.07407407407407407,0,0,0.07407407407407407,155.25925925925924,0)" xlink:href="#S"/><use transform="matrix(0.07407407407407407,0,0,0.07407407407407407,170.07407407407402,0)" xlink:href="#P"/><use transform="matrix(0.07407407407407407,0,0,0.07407407407407407,180.44444444444443,0)" xlink:href="#T"/><use transform="matrix(0.07407407407407407,0,0,0.07407407407407407,196.66666666666666,0)" xlink:href="#F"/><use transform="matrix(0.07407407407407407,0,0,0.07407407407407407,211.48148148148147,0)" xlink:href="#T"/></g><g id="t"><use transform="matrix(0.07407407407407407,0,0,0.07407407407407407,0,0)" xlink:href="#S"/><use transform="matrix(0.07407407407407407,0,0,0.07407407407407407,14.814814814814813,0)" xlink:href="#R"/><use transform="matrix(0.07407407407407407,0,0,0.07407407407407407,29.629629629629626,0)" xlink:href="#R"/><use transform="matrix(0.07407407407407407,0,0,0.07407407407407407,44.44444444444444,0)" xlink:href="#ag"/><use transform="matrix(0.07407407407407407,0,0,0.07407407407407407,60.666666666666664,0)" xlink:href="#B"/><use transform="matrix(0.07407407407407407,0,0,0.07407407407407407,76.88888888888889,0)" xlink:href="#E"/><use transform="matrix(0.07407407407407407,0,0,0.07407407407407407,93.1111111111111,0)" xlink:href="#I"/><use transform="matrix(0.07407407407407407,0,0,0.07407407407407407,101.92592592592592,0)" xlink:href="#Q"/><path fill="#8080ff" d="M100.6 1.43h10.06v2.8H100.6z"/><use transform="matrix(0.07407407407407407,0,0,0.07407407407407407,109.33333333333333,0)" xlink:href="#am"/><use transform="matrix(0.07407407407407407,0,0,0.07407407407407407,125.55555555555554,0)" xlink:href="#S"/><use transform="matrix(0.07407407407407407,0,0,0.07407407407407407,140.37037037037035,0)" xlink:href="#D"/><use transform="matrix(0.07407407407407407,0,0,0.07407407407407407,147.77777777777777,0)" xlink:href="#T"/></g><g id="u"><use transform="matrix(0.07407407407407407,0,0,0.07407407407407407,0,0)" xlink:href="#ap"/><use transform="matrix(0.07407407407407407,0,0,0.07407407407407407,16.22222222222222,0)" xlink:href="#ag"/><use transform="matrix(0.07407407407407407,0,0,0.07407407407407407,32.44444444444444,0)" xlink:href="#ak"/><use transform="matrix(0.07407407407407407,0,0,0.07407407407407407,48.666666666666664,0)" xlink:href="#ak"/><use transform="matrix(0.07407407407407407,0,0,0.07407407407407407,64.88888888888889,0)" xlink:href="#F"/><use transform="matrix(0.07407407407407407,0,0,0.07407407407407407,79.7037037037037,0)" xlink:href="#P"/></g><g id="v"><use transform="matrix(0.07407407407407407,0,0,0.07407407407407407,0,0)" xlink:href="#S"/><use transform="matrix(0.07407407407407407,0,0,0.07407407407407407,14.814814814814813,0)" xlink:href="#E"/><use transform="matrix(0.07407407407407407,0,0,0.07407407407407407,31.037037037037035,0)" xlink:href="#T"/></g><path fill="#333" d="M230 0l2-204L168 0h-37L68-204 70 0H24v-248h70l56 185 57-185h69V0h-46" id="ar"/><g id="w"><use transform="matrix(0.07407407407407407,0,0,0.07407407407407407,0,0)" xlink:href="#ar"/><use transform="matrix(0.07407407407407407,0,0,0.07407407407407407,22.148148148148145,0)" xlink:href="#S"/><use transform="matrix(0.07407407407407407,0,0,0.07407407407407407,36.96296296296296,0)" xlink:href="#D"/><use transform="matrix(0.07407407407407407,0,0,0.07407407407407407,44.37037037037037,0)" xlink:href="#an"/><use transform="matrix(0.07407407407407407,0,0,0.07407407407407407,51.77777777777777,0)" xlink:href="#F"/><use transform="matrix(0.07407407407407407,0,0,0.07407407407407407,66.59259259259258,0)" xlink:href="#P"/></g><path fill="#333" d="M205 0l-28-72H64L36 0H1l101-248h38L239 0h-34zm-38-99l-47-123c-12 45-31 82-46 123h93" id="as"/><path fill="#333" d="M106-169C34-169 62-67 57 0H25v-261h32l-1 103c12-21 28-36 61-36 89 0 53 116 60 194h-32v-121c2-32-8-49-39-48" id="at"/><g id="x"><use transform="matrix(0.11111111111111108,0,0,0.11111111111111108,0,0)" xlink:href="#as"/><use transform="matrix(0.11111111111111108,0,0,0.11111111111111108,26.666666666666657,0)" xlink:href="#Y"/><use transform="matrix(0.11111111111111108,0,0,0.11111111111111108,48.88888888888887,0)" xlink:href="#N"/><use transform="matrix(0.11111111111111108,0,0,0.11111111111111108,59.99999999999998,0)" xlink:href="#at"/></g><path fill="#333" d="M127-220V0H93v-220H8v-28h204v28h-85" id="au"/><path fill="#333" d="M141-36C126-15 110 5 73 4 37 3 15-17 15-53c-1-64 63-63 125-63 3-35-9-54-41-54-24 1-41 7-42 31l-33-3c5-37 33-52 76-52 45 0 72 20 72 64v82c-1 20 7 32 28 27v20c-31 9-61-2-59-35zM48-53c0 20 12 33 32 33 41-3 63-29 60-74-43 2-92-5-92 41" id="av"/><path fill="#333" d="M143 0L79-87 56-68V0H24v-261h32v163l83-92h37l-77 82L181 0h-38" id="aw"/><g id="y"><use transform="matrix(0.11111111111111108,0,0,0.11111111111111108,0,0)" xlink:href="#au"/><use transform="matrix(0.11111111111111108,0,0,0.11111111111111108,19.888888888888882,0)" xlink:href="#av"/><use transform="matrix(0.11111111111111108,0,0,0.11111111111111108,42.1111111111111,0)" xlink:href="#ad"/><use transform="matrix(0.11111111111111108,0,0,0.11111111111111108,62.11111111111109,0)" xlink:href="#aw"/><use transform="matrix(0.11111111111111108,0,0,0.11111111111111108,82.11111111111109,0)" xlink:href="#L"/><use transform="matrix(0.11111111111111108,0,0,0.11111111111111108,104.3333333333333,0)" xlink:href="#V"/></g><path fill="#333" d="M24-231v-30h32v30H24zM24 0v-190h32V0H24" id="ax"/><path fill="#333" d="M177-190C167-65 218 103 67 71c-23-6-38-20-44-43l32-5c15 47 100 32 89-28v-30C133-14 115 1 83 1 29 1 15-40 15-95c0-56 16-97 71-98 29-1 48 16 59 35 1-10 0-23 2-32h30zM94-22c36 0 50-32 50-73 0-42-14-75-50-75-39 0-46 34-46 75s6 73 46 73" id="ay"/><g id="z"><use transform="matrix(0.11111111111111108,0,0,0.11111111111111108,0,0)" xlink:href="#as"/><use transform="matrix(0.11111111111111108,0,0,0.11111111111111108,26.666666666666657,0)" xlink:href="#Z"/><use transform="matrix(0.11111111111111108,0,0,0.11111111111111108,46.66666666666665,0)" xlink:href="#Z"/><use transform="matrix(0.11111111111111108,0,0,0.11111111111111108,66.66666666666664,0)" xlink:href="#W"/><use transform="matrix(0.11111111111111108,0,0,0.11111111111111108,88.88888888888886,0)" xlink:href="#Y"/><use transform="matrix(0.11111111111111108,0,0,0.11111111111111108,111.11111111111107,0)" xlink:href="#M"/><use transform="matrix(0.11111111111111108,0,0,0.11111111111111108,133.3333333333333,0)" xlink:href="#N"/><use transform="matrix(0.11111111111111108,0,0,0.11111111111111108,144.4444444444444,0)" xlink:href="#ax"/><use transform="matrix(0.11111111111111108,0,0,0.11111111111111108,153.22222222222217,0)" xlink:href="#M"/><use transform="matrix(0.11111111111111108,0,0,0.11111111111111108,175.4444444444444,0)" xlink:href="#ay"/></g></defs></g></svg>