<svg xmlns="http://www.w3.org/2000/svg" xmlns:xlink="http://www.w3.org/1999/xlink" xmlns:lucid="lucid" width="1440" height="890"><g transform="translate(-240 0)" lucid:page-tab-id="Sx5mJsOlnEh1"><path d="M0 0h1870.87v1322.83H0z" fill="#fff"/><path d="M327 130.5h240v60H327z" fill="none"/><use xlink:href="#a" transform="matrix(1,0,0,1,327,130.5) translate(78.8888888888889 38)"/><path d="M705.43 26c0-3.3 2.7-6 6-6h448c3.32 0 6 2.7 6 6v126c0 3.3-2.68 6-6 6h-448c-3.3 0-6-2.7-6-6z" stroke="#000" stroke-opacity="0" stroke-width="3" fill="#fff" fill-opacity="0"/><use xlink:href="#b" transform="matrix(1,0,0,1,710.4330708661416,25) translate(75.74074074074088 74.66666666666663)"/><use xlink:href="#c" transform="matrix(1,0,0,1,710.4330708661416,25) translate(205.66666666666669 74.66666666666663)"/><path d="M260 226c0-3.3 2.7-6 6-6h388c3.3 0 6 2.7 6 6v158c0 3.3-2.7 6-6 6H266c-3.3 0-6-2.7-6-6z" stroke="#5e5e5e" stroke-width="3" fill="#fff"/><use xlink:href="#d" transform="matrix(1,0,0,1,265,225) translate(0 21.333333333333332)"/><use xlink:href="#e" transform="matrix(1,0,0,1,265,225) translate(82.96296296296295 21.333333333333332)"/><use xlink:href="#f" transform="matrix(1,0,0,1,265,225) translate(0 53.33333333333333)"/><use xlink:href="#g" transform="matrix(1,0,0,1,265,225) translate(71.03703703703702 53.33333333333333)"/><use xlink:href="#h" transform="matrix(1,0,0,1,265,225) translate(109.48148148148147 53.33333333333333)"/><use xlink:href="#i" transform="matrix(1,0,0,1,265,225) translate(0 85.33333333333333)"/><use xlink:href="#j" transform="matrix(1,0,0,1,265,225) translate(122.81481481481478 85.33333333333333)"/><use xlink:href="#k" transform="matrix(1,0,0,1,265,225) translate(0 117.33333333333333)"/><use xlink:href="#l" transform="matrix(1,0,0,1,265,225) translate(137.55555555555554 117.33333333333333)"/><use xlink:href="#m" transform="matrix(1,0,0,1,265,225) translate(234.7407407407407 117.33333333333333)"/><use xlink:href="#n" transform="matrix(1,0,0,1,265,225) translate(0 149.33333333333334)"/><use xlink:href="#o" transform="matrix(1,0,0,1,265,225) translate(54.66666666666666 149.33333333333334)"/><g transform="matrix(1,0,0,1,265,225)"><a xlink:href="http://user.created" target="_blank"><path class="lucid-link lucid-hotspot lucid-overlay-hotspot" fill-opacity="0" d="M82.96 0h156.8v32H82.97z"/></a><a xlink:href="http://user.id" target="_blank"><path class="lucid-link lucid-hotspot lucid-overlay-hotspot" fill-opacity="0" d="M71.04 32h7.4v32h-7.4z"/></a></g><path d="M260 466c0-3.3 2.7-6 6-6h388c3.3 0 6 2.7 6 6v158c0 3.3-2.7 6-6 6H266c-3.3 0-6-2.7-6-6z" stroke="#5e5e5e" stroke-width="3" fill="#fff"/><use xlink:href="#d" transform="matrix(1,0,0,1,265,465) translate(0 21.333333333333332)"/><use xlink:href="#p" transform="matrix(1,0,0,1,265,465) translate(82.96296296296295 21.333333333333332)"/><use xlink:href="#f" transform="matrix(1,0,0,1,265,465) translate(0 53.33333333333333)"/><use xlink:href="#q" transform="matrix(1,0,0,1,265,465) translate(71.03703703703702 53.33333333333333)"/><use xlink:href="#i" transform="matrix(1,0,0,1,265,465) translate(0 85.33333333333333)"/><use xlink:href="#j" transform="matrix(1,0,0,1,265,465) translate(122.81481481481478 85.33333333333333)"/><use xlink:href="#k" transform="matrix(1,0,0,1,265,465) translate(0 117.33333333333333)"/><use xlink:href="#l" transform="matrix(1,0,0,1,265,465) translate(137.55555555555554 117.33333333333333)"/><use xlink:href="#m" transform="matrix(1,0,0,1,265,465) translate(234.7407407407407 117.33333333333333)"/><use xlink:href="#n" transform="matrix(1,0,0,1,265,465) translate(0 149.33333333333334)"/><use xlink:href="#o" transform="matrix(1,0,0,1,265,465) translate(54.66666666666666 149.33333333333334)"/><g transform="matrix(1,0,0,1,265,465)"><a xlink:href="http://user.created" target="_blank"><path class="lucid-link lucid-hotspot lucid-overlay-hotspot" fill-opacity="0" d="M82.96 0h62.15v32H82.97z"/></a><a xlink:href="http://user.created" target="_blank"><path class="lucid-link lucid-hotspot lucid-overlay-hotspot" fill-opacity="0" d="M145.1 0h16.23v32H145.1z"/></a><a xlink:href="http://user.id" target="_blank"><path class="lucid-link lucid-hotspot lucid-overlay-hotspot" fill-opacity="0" d="M71.04 32h23.63v32H71.04z"/></a></g><path d="M760 226c0-3.3 2.7-6 6-6h388c3.3 0 6 2.7 6 6v148c0 3.3-2.7 6-6 6H766c-3.3 0-6-2.7-6-6z" stroke="#5e5e5e" stroke-width="3" fill="#fff"/><g><use xlink:href="#d" transform="matrix(1,0,0,1,765,225) translate(0 21.333333333333332)"/><use xlink:href="#r" transform="matrix(1,0,0,1,765,225) translate(82.96296296296295 21.333333333333332)"/><use xlink:href="#f" transform="matrix(1,0,0,1,765,225) translate(0 53.33333333333333)"/><use xlink:href="#s" transform="matrix(1,0,0,1,765,225) translate(71.03703703703702 53.33333333333333)"/><use xlink:href="#i" transform="matrix(1,0,0,1,765,225) translate(0 85.33333333333333)"/><use xlink:href="#t" transform="matrix(1,0,0,1,765,225) translate(122.81481481481478 85.33333333333333)"/><use xlink:href="#k" transform="matrix(1,0,0,1,765,225) translate(0 117.33333333333333)"/><use xlink:href="#u" transform="matrix(1,0,0,1,765,225) translate(137.55555555555554 117.33333333333333)"/></g><g transform="matrix(1,0,0,1,765,225)"><a xlink:href="http://user.created" target="_blank"><path class="lucid-link lucid-hotspot lucid-overlay-hotspot" fill-opacity="0" d="M82.96 0h8.8v32h-8.8z"/></a><a xlink:href="http://user.created" target="_blank"><path class="lucid-link lucid-hotspot lucid-overlay-hotspot" fill-opacity="0" d="M136.22 0H238.3v32H136.2z"/></a></g><path d="M1260 226c0-3.3 2.7-6 6-6h388c3.3 0 6 2.7 6 6v148c0 3.3-2.7 6-6 6h-388c-3.3 0-6-2.7-6-6z" stroke="#5e5e5e" stroke-width="3" fill="#fff"/><g><use xlink:href="#d" transform="matrix(1,0,0,1,1265,225) translate(0 21.333333333333332)"/><use xlink:href="#v" transform="matrix(1,0,0,1,1265,225) translate(82.96296296296295 21.333333333333332)"/><use xlink:href="#f" transform="matrix(1,0,0,1,1265,225) translate(0 53.33333333333333)"/><use xlink:href="#w" transform="matrix(1,0,0,1,1265,225) translate(71.03703703703702 53.33333333333333)"/><use xlink:href="#x" transform="matrix(1,0,0,1,1265,225) translate(109.48148148148147 53.33333333333333)"/><use xlink:href="#y" transform="matrix(1,0,0,1,1265,225) translate(162.7407407407407 53.33333333333333)"/><use xlink:href="#i" transform="matrix(1,0,0,1,1265,225) translate(0 85.33333333333333)"/><use xlink:href="#z" transform="matrix(1,0,0,1,1265,225) translate(122.81481481481478 85.33333333333333)"/><use xlink:href="#k" transform="matrix(1,0,0,1,1265,225) translate(0 117.33333333333333)"/><use xlink:href="#A" transform="matrix(1,0,0,1,1265,225) translate(137.55555555555554 117.33333333333333)"/></g><g transform="matrix(1,0,0,1,1265,225)"><a xlink:href="http://user.created" target="_blank"><path class="lucid-link lucid-hotspot lucid-overlay-hotspot" fill-opacity="0" d="M82.96 0h8.8v32h-8.8z"/></a><a xlink:href="http://user.created" target="_blank"><path class="lucid-link lucid-hotspot lucid-overlay-hotspot" fill-opacity="0" d="M136.22 0h7.4v32h-7.4z"/></a><a xlink:href="http://user.created" target="_blank"><path class="lucid-link lucid-hotspot lucid-overlay-hotspot" fill-opacity="0" d="M143.63 0h14.8v32h-14.8z"/></a><a xlink:href="http://task.id," target="_blank"><path class="lucid-link lucid-hotspot lucid-overlay-hotspot" fill-opacity="0" d="M71.04 32h31.04v32H71.04z"/></a><a xlink:href="http://taks.fee," target="_blank"><path class="lucid-link lucid-hotspot lucid-overlay-hotspot" fill-opacity="0" d="M109.48 32h45.85v32h-45.85z"/></a></g><path d="M760 466c0-3.3 2.7-6 6-6h388c3.3 0 6 2.7 6 6v148c0 3.3-2.7 6-6 6H766c-3.3 0-6-2.7-6-6z" stroke="#5e5e5e" stroke-width="3" fill="#fff"/><g><use xlink:href="#d" transform="matrix(1,0,0,1,765,465) translate(0 21.333333333333332)"/><use xlink:href="#B" transform="matrix(1,0,0,1,765,465) translate(82.96296296296295 21.333333333333332)"/><use xlink:href="#f" transform="matrix(1,0,0,1,765,465) translate(0 53.33333333333333)"/><use xlink:href="#C" transform="matrix(1,0,0,1,765,465) translate(71.03703703703702 53.33333333333333)"/><use xlink:href="#D" transform="matrix(1,0,0,1,765,465) translate(109.48148148148147 53.33333333333333)"/><use xlink:href="#i" transform="matrix(1,0,0,1,765,465) translate(0 85.33333333333333)"/><use xlink:href="#t" transform="matrix(1,0,0,1,765,465) translate(122.81481481481478 85.33333333333333)"/><use xlink:href="#E" transform="matrix(1,0,0,1,765,465) translate(0 117.33333333333333)"/><use xlink:href="#F" transform="matrix(1,0,0,1,765,465) translate(137.55555555555554 117.33333333333333)"/></g><g transform="matrix(1,0,0,1,765,465)"><a xlink:href="http://user.created" target="_blank"><path class="lucid-link lucid-hotspot lucid-overlay-hotspot" fill-opacity="0" d="M82.96 0h8.8v32h-8.8z"/></a><a xlink:href="http://user.created" target="_blank"><path class="lucid-link lucid-hotspot lucid-overlay-hotspot" fill-opacity="0" d="M136.22 0h7.4v32h-7.4z"/></a><a xlink:href="http://user.created" target="_blank"><path class="lucid-link lucid-hotspot lucid-overlay-hotspot" fill-opacity="0" d="M143.63 0h14.8v32h-14.8z"/></a><a xlink:href="http://task.id," target="_blank"><path class="lucid-link lucid-hotspot lucid-overlay-hotspot" fill-opacity="0" d="M71.04 32h7.4v32h-7.4z"/></a><a xlink:href="http://task.id," target="_blank"><path class="lucid-link lucid-hotspot lucid-overlay-hotspot" fill-opacity="0" d="M94.67 32h7.4v32h-7.4z"/></a></g><path d="M760 706c0-3.3 2.7-6 6-6h388c3.3 0 6 2.7 6 6v158c0 3.3-2.7 6-6 6H766c-3.3 0-6-2.7-6-6z" stroke="#5e5e5e" stroke-width="3" fill="#fff"/><g><use xlink:href="#d" transform="matrix(1,0,0,1,765,705) translate(0 21.333333333333332)"/><use xlink:href="#G" transform="matrix(1,0,0,1,765,705) translate(82.96296296296295 21.333333333333332)"/><use xlink:href="#f" transform="matrix(1,0,0,1,765,705) translate(0 53.33333333333333)"/><use xlink:href="#H" transform="matrix(1,0,0,1,765,705) translate(71.03703703703702 53.33333333333333)"/><use xlink:href="#D" transform="matrix(1,0,0,1,765,705) translate(109.48148148148147 53.33333333333333)"/><use xlink:href="#i" transform="matrix(1,0,0,1,765,705) translate(0 85.33333333333333)"/><use xlink:href="#t" transform="matrix(1,0,0,1,765,705) translate(122.81481481481478 85.33333333333333)"/><use xlink:href="#E" transform="matrix(1,0,0,1,765,705) translate(0 117.33333333333333)"/><use xlink:href="#I" transform="matrix(1,0,0,1,765,705) translate(137.55555555555554 117.33333333333333)"/><use xlink:href="#J" transform="matrix(1,0,0,1,765,705) translate(291.1111111111111 117.33333333333333)"/><use xlink:href="#o" transform="matrix(1,0,0,1,765,705) translate(0 149.33333333333334)"/></g><g transform="matrix(1,0,0,1,765,705)"><a xlink:href="http://user.created" target="_blank"><path class="lucid-link lucid-hotspot lucid-overlay-hotspot" fill-opacity="0" d="M82.96 0h8.8v32h-8.8z"/></a><a xlink:href="http://user.created" target="_blank"><path class="lucid-link lucid-hotspot lucid-overlay-hotspot" fill-opacity="0" d="M136.22 0h7.4v32h-7.4z"/></a><a xlink:href="http://task.id," target="_blank"><path class="lucid-link lucid-hotspot lucid-overlay-hotspot" fill-opacity="0" d="M71.04 32h31.04v32H71.04z"/></a></g><path d="M1260 456c0-3.3 2.7-6 6-6h388c3.3 0 6 2.7 6 6v148c0 3.3-2.7 6-6 6h-388c-3.3 0-6-2.7-6-6z" stroke="#5e5e5e" stroke-width="3" fill="#fff"/><g><use xlink:href="#d" transform="matrix(1,0,0,1,1265,455) translate(0 21.333333333333332)"/><use xlink:href="#K" transform="matrix(1,0,0,1,1265,455) translate(82.96296296296295 21.333333333333332)"/><use xlink:href="#f" transform="matrix(1,0,0,1,1265,455) translate(0 53.33333333333333)"/><use xlink:href="#H" transform="matrix(1,0,0,1,1265,455) translate(71.03703703703702 53.33333333333333)"/><use xlink:href="#L" transform="matrix(1,0,0,1,1265,455) translate(109.48148148148147 53.33333333333333)"/><use xlink:href="#i" transform="matrix(1,0,0,1,1265,455) translate(0 85.33333333333333)"/><use xlink:href="#z" transform="matrix(1,0,0,1,1265,455) translate(122.81481481481478 85.33333333333333)"/><use xlink:href="#k" transform="matrix(1,0,0,1,1265,455) translate(0 117.33333333333333)"/><use xlink:href="#M" transform="matrix(1,0,0,1,1265,455) translate(137.55555555555554 117.33333333333333)"/></g><g transform="matrix(1,0,0,1,1265,455)"><a xlink:href="http://task.id," target="_blank"><path class="lucid-link lucid-hotspot lucid-overlay-hotspot" fill-opacity="0" d="M71.04 32h31.04v32H71.04z"/></a></g><path d="M820 130.5h240v60H820z" fill="none"/><g><use xlink:href="#N" transform="matrix(1,0,0,1,820,130.5) translate(21.166666666666686 38)"/></g><path d="M1320 130.5h240v60h-240z" fill="none"/><g><use xlink:href="#O" transform="matrix(1,0,0,1,1320,130.5) translate(40.11111111111113 38)"/></g><defs><path fill="#333" d="M205 0l-28-72H64L36 0H1l101-248h38L239 0h-34zm-38-99l-47-123c-12 45-31 82-46 123h93" id="P"/><path fill="#333" d="M84 4C-5 8 30-112 23-190h32v120c0 31 7 50 39 49 72-2 45-101 50-169h31l1 190h-30c-1-10 1-25-2-33-11 22-28 36-60 37" id="Q"/><path fill="#333" d="M59-47c-2 24 18 29 38 22v24C64 9 27 4 27-40v-127H5v-23h24l9-43h21v43h35v23H59v120" id="R"/><path fill="#333" d="M106-169C34-169 62-67 57 0H25v-261h32l-1 103c12-21 28-36 61-36 89 0 53 116 60 194h-32v-121c2-32-8-49-39-48" id="S"/><g id="a"><use transform="matrix(0.11111111111111108,0,0,0.11111111111111108,0,0)" xlink:href="#P"/><use transform="matrix(0.11111111111111108,0,0,0.11111111111111108,26.666666666666657,0)" xlink:href="#Q"/><use transform="matrix(0.11111111111111108,0,0,0.11111111111111108,48.88888888888887,0)" xlink:href="#R"/><use transform="matrix(0.11111111111111108,0,0,0.11111111111111108,59.99999999999998,0)" xlink:href="#S"/></g><path fill="#333" d="M67-125c0 53 21 87 73 88 37 1 54-22 65-47l45 17C233-25 199 4 140 4 58 4 20-42 15-125 8-235 124-281 211-232c18 10 29 29 36 50l-46 12c-8-25-30-41-62-41-52 0-71 34-72 86" id="T"/><path fill="#333" d="M238-95c0 69-44 99-111 99C63 4 22-25 22-93v-155h51v151c-1 38 19 59 55 60 90 1 49-130 58-211h52v153" id="U"/><path fill="#333" d="M24-248c120-7 223 5 221 122C244-46 201 0 124 0H24v-248zM76-40c74 7 117-18 117-86 0-67-45-88-117-82v168" id="V"/><g id="b"><use transform="matrix(0.14814814814814803,0,0,0.14814814814814803,0,0)" xlink:href="#T"/><use transform="matrix(0.14814814814814803,0,0,0.14814814814814803,38.37037037037034,0)" xlink:href="#U"/><use transform="matrix(0.14814814814814803,0,0,0.14814814814814803,76.74074074074068,0)" xlink:href="#V"/></g><path fill="#333" d="M185-48c-13 30-37 53-82 52C43 2 14-33 14-96s30-98 90-98c62 0 83 45 84 108H66c0 31 8 55 39 56 18 0 30-7 34-22zm-45-69c5-46-57-63-70-21-2 6-4 13-4 21h74" id="W"/><path fill="#333" d="M128 0H69L1-190h53L99-40l48-150h52" id="X"/><path fill="#333" d="M135-194c87-1 58 113 63 194h-50c-7-57 23-157-34-157-59 0-34 97-39 157H25l-1-190h47c2 12-1 28 3 38 12-26 28-41 61-42" id="Y"/><path fill="#333" d="M115-3C79 11 28 4 28-45v-112H4v-33h27l15-45h31v45h36v33H77v99c-1 23 16 31 38 25v30" id="Z"/><path fill="#333" d="M137-138c1-29-70-34-71-4 15 46 118 7 119 86 1 83-164 76-172 9l43-7c4 19 20 25 44 25 33 8 57-30 24-41C81-84 22-81 20-136c-2-80 154-74 161-7" id="aa"/><g id="c"><use transform="matrix(0.14814814814814803,0,0,0.14814814814814803,0,0)" xlink:href="#W"/><use transform="matrix(0.14814814814814803,0,0,0.14814814814814803,29.629629629629605,0)" xlink:href="#X"/><use transform="matrix(0.14814814814814803,0,0,0.14814814814814803,59.25925925925921,0)" xlink:href="#W"/><use transform="matrix(0.14814814814814803,0,0,0.14814814814814803,88.88888888888881,0)" xlink:href="#Y"/><use transform="matrix(0.14814814814814803,0,0,0.14814814814814803,121.33333333333323,0)" xlink:href="#Z"/><use transform="matrix(0.14814814814814803,0,0,0.14814814814814803,138.96296296296285,0)" xlink:href="#aa"/></g><path fill="#333" d="M30 0v-248h187v28H63v79h144v27H63v87h162V0H30" id="ab"/><path fill="#333" d="M108 0H70L1-190h34L89-25l56-165h34" id="ac"/><path fill="#333" d="M100-194c63 0 86 42 84 106H49c0 40 14 67 53 68 26 1 43-12 49-29l28 8c-11 28-37 45-77 45C44 4 14-33 15-96c1-61 26-98 85-98zm52 81c6-60-76-77-97-28-3 7-6 17-6 28h103" id="ad"/><path fill="#333" d="M117-194c89-4 53 116 60 194h-32v-121c0-31-8-49-39-48C34-167 62-67 57 0H25l-1-190h30c1 10-1 24 2 32 11-22 29-35 61-36" id="ae"/><path fill="#333" d="M33-154v-36h34v36H33zM33 0v-36h34V0H33" id="af"/><g id="d"><use transform="matrix(0.07407407407407407,0,0,0.07407407407407407,0,0)" xlink:href="#ab"/><use transform="matrix(0.07407407407407407,0,0,0.07407407407407407,17.77777777777778,0)" xlink:href="#ac"/><use transform="matrix(0.07407407407407407,0,0,0.07407407407407407,31.11111111111111,0)" xlink:href="#ad"/><use transform="matrix(0.07407407407407407,0,0,0.07407407407407407,45.925925925925924,0)" xlink:href="#ae"/><use transform="matrix(0.07407407407407407,0,0,0.07407407407407407,60.74074074074074,0)" xlink:href="#R"/><use transform="matrix(0.07407407407407407,0,0,0.07407407407407407,68.14814814814814,0)" xlink:href="#af"/></g><path fill="#333" d="M85 4C-2 5 27-109 22-190h50c7 57-23 150 33 157 60-5 35-97 40-157h50l1 190h-47c-2-12 1-28-3-38-12 25-28 42-61 42" id="ag"/><path fill="#333" d="M135-150c-39-12-60 13-60 57V0H25l-1-190h47c2 13-1 29 3 40 6-28 27-53 61-41v41" id="ah"/><path fill="#333" d="M24 0v-54h51V0H24" id="ai"/><path fill="#333" d="M190-63c-7 42-38 67-86 67-59 0-84-38-90-98-12-110 154-137 174-36l-49 2c-2-19-15-32-35-32-30 0-35 28-38 64-6 74 65 87 74 30" id="aj"/><path fill="#333" d="M133-34C117-15 103 5 69 4 32 3 11-16 11-54c-1-60 55-63 116-61 1-26-3-47-28-47-18 1-26 9-28 27l-52-2c7-38 36-58 82-57s74 22 75 68l1 82c-1 14 12 18 25 15v27c-30 8-71 5-69-32zm-48 3c29 0 43-24 42-57-32 0-66-3-65 30 0 17 8 27 23 27" id="ak"/><path fill="#333" d="M88-194c31-1 46 15 58 34l-1-101h50l1 261h-48c-2-10 0-23-3-31C134-8 116 4 84 4 32 4 16-41 15-95c0-56 19-97 73-99zm17 164c33 0 40-30 41-66 1-37-9-64-41-64s-38 30-39 65c0 43 13 65 39 65" id="al"/><g id="e"><use transform="matrix(0.07407407407407407,0,0,0.07407407407407407,0,0)" xlink:href="#ag"/><use transform="matrix(0.07407407407407407,0,0,0.07407407407407407,16.22222222222222,0)" xlink:href="#aa"/><use transform="matrix(0.07407407407407407,0,0,0.07407407407407407,31.037037037037035,0)" xlink:href="#W"/><use transform="matrix(0.07407407407407407,0,0,0.07407407407407407,45.85185185185185,0)" xlink:href="#ah"/><use transform="matrix(0.07407407407407407,0,0,0.07407407407407407,54.740740740740726,0)" xlink:href="#ai"/><use transform="matrix(0.07407407407407407,0,0,0.07407407407407407,62.14814814814814,0)" xlink:href="#aj"/><use transform="matrix(0.07407407407407407,0,0,0.07407407407407407,76.96296296296295,0)" xlink:href="#ah"/><use transform="matrix(0.07407407407407407,0,0,0.07407407407407407,87.33333333333331,0)" xlink:href="#W"/><use transform="matrix(0.07407407407407407,0,0,0.07407407407407407,102.14814814814812,0)" xlink:href="#ak"/><use transform="matrix(0.07407407407407407,0,0,0.07407407407407407,116.96296296296293,0)" xlink:href="#Z"/><use transform="matrix(0.07407407407407407,0,0,0.07407407407407407,125.77777777777774,0)" xlink:href="#W"/><use transform="matrix(0.07407407407407407,0,0,0.07407407407407407,140.59259259259255,0)" xlink:href="#al"/><path fill="#8080ff" d="M-1.33 1.43h159.48v2.8H-1.33z"/></g><path fill="#333" d="M30-248c118-7 216 8 213 122C240-48 200 0 122 0H30v-248zM63-27c89 8 146-16 146-99s-60-101-146-95v194" id="am"/><path fill="#333" d="M141-36C126-15 110 5 73 4 37 3 15-17 15-53c-1-64 63-63 125-63 3-35-9-54-41-54-24 1-41 7-42 31l-33-3c5-37 33-52 76-52 45 0 72 20 72 64v82c-1 20 7 32 28 27v20c-31 9-61-2-59-35zM48-53c0 20 12 33 32 33 41-3 63-29 60-74-43 2-92-5-92 41" id="an"/><g id="f"><use transform="matrix(0.07407407407407407,0,0,0.07407407407407407,0,0)" xlink:href="#am"/><use transform="matrix(0.07407407407407407,0,0,0.07407407407407407,19.185185185185183,0)" xlink:href="#an"/><use transform="matrix(0.07407407407407407,0,0,0.07407407407407407,34,0)" xlink:href="#R"/><use transform="matrix(0.07407407407407407,0,0,0.07407407407407407,41.407407407407405,0)" xlink:href="#an"/><use transform="matrix(0.07407407407407407,0,0,0.07407407407407407,56.22222222222221,0)" xlink:href="#af"/></g><path fill="#333" d="M25-224v-37h50v37H25zM25 0v-190h50V0H25" id="ao"/><path fill="#333" d="M76-54c-1 42 2 86-19 110H24C36 42 46 24 48 0H25v-54h51" id="ap"/><g id="g"><use transform="matrix(0.07407407407407407,0,0,0.07407407407407407,0,0)" xlink:href="#ao"/><path fill="#8080ff" d="M-1.33 1.43H8.74v2.8H-1.33z"/><use transform="matrix(0.07407407407407407,0,0,0.07407407407407407,7.4074074074074066,0)" xlink:href="#al"/><use transform="matrix(0.07407407407407407,0,0,0.07407407407407407,23.629629629629623,0)" xlink:href="#ap"/></g><path fill="#333" d="M110-194c64 0 96 36 96 99 0 64-35 99-97 99-61 0-95-36-95-99 0-62 34-99 96-99zm-1 164c35 0 45-28 45-65 0-40-10-65-43-65-34 0-45 26-45 65 0 36 10 65 43 65" id="aq"/><path fill="#333" d="M25 0v-261h50V0H25" id="ar"/><g id="h"><use transform="matrix(0.07407407407407407,0,0,0.07407407407407407,0,0)" xlink:href="#ah"/><use transform="matrix(0.07407407407407407,0,0,0.07407407407407407,10.37037037037037,0)" xlink:href="#aq"/><use transform="matrix(0.07407407407407407,0,0,0.07407407407407407,26.59259259259259,0)" xlink:href="#ar"/><use transform="matrix(0.07407407407407407,0,0,0.07407407407407407,34,0)" xlink:href="#W"/></g><path fill="#333" d="M30-248c87 1 191-15 191 75 0 78-77 80-158 76V0H30v-248zm33 125c57 0 124 11 124-50 0-59-68-47-124-48v98" id="as"/><path fill="#333" d="M114-163C36-179 61-72 57 0H25l-1-190h30c1 12-1 29 2 39 6-27 23-49 58-41v29" id="at"/><path fill="#333" d="M100-194c62-1 85 37 85 99 1 63-27 99-86 99S16-35 15-95c0-66 28-99 85-99zM99-20c44 1 53-31 53-75 0-43-8-75-51-75s-53 32-53 75 10 74 51 75" id="au"/><path fill="#333" d="M85-194c31 0 48 13 60 33l-1-100h32l1 261h-30c-2-10 0-23-3-31C134-8 116 4 85 4 32 4 16-35 15-94c0-66 23-100 70-100zm9 24c-40 0-46 34-46 75 0 40 6 74 45 74 42 0 51-32 51-76 0-42-9-74-50-73" id="av"/><path fill="#333" d="M96-169c-40 0-48 33-48 73s9 75 48 75c24 0 41-14 43-38l32 2c-6 37-31 61-74 61-59 0-76-41-82-99-10-93 101-131 147-64 4 7 5 14 7 22l-32 3c-4-21-16-35-41-35" id="aw"/><g id="i"><use transform="matrix(0.07407407407407407,0,0,0.07407407407407407,0,0)" xlink:href="#as"/><use transform="matrix(0.07407407407407407,0,0,0.07407407407407407,17.77777777777778,0)" xlink:href="#at"/><use transform="matrix(0.07407407407407407,0,0,0.07407407407407407,26.592592592592595,0)" xlink:href="#au"/><use transform="matrix(0.07407407407407407,0,0,0.07407407407407407,41.407407407407405,0)" xlink:href="#av"/><use transform="matrix(0.07407407407407407,0,0,0.07407407407407407,56.22222222222221,0)" xlink:href="#Q"/><use transform="matrix(0.07407407407407407,0,0,0.07407407407407407,71.03703703703702,0)" xlink:href="#aw"/><use transform="matrix(0.07407407407407407,0,0,0.07407407407407407,84.37037037037035,0)" xlink:href="#ad"/><use transform="matrix(0.07407407407407407,0,0,0.07407407407407407,99.18518518518516,0)" xlink:href="#at"/><use transform="matrix(0.07407407407407407,0,0,0.07407407407407407,107.99999999999997,0)" xlink:href="#af"/></g><path fill="#333" d="M199 0l-22-63H83L61 0H9l90-248h61L250 0h-51zm-33-102l-36-108c-10 38-24 72-36 108h72" id="ax"/><path fill="#333" d="M114-157C55-157 80-60 75 0H25v-261h50l-1 109c12-26 28-41 61-42 86-1 58 113 63 194h-50c-7-57 23-157-34-157" id="ay"/><g id="j"><use transform="matrix(0.07407407407407407,0,0,0.07407407407407407,0,0)" xlink:href="#ax"/><use transform="matrix(0.07407407407407407,0,0,0.07407407407407407,19.185185185185183,0)" xlink:href="#ag"/><use transform="matrix(0.07407407407407407,0,0,0.07407407407407407,35.407407407407405,0)" xlink:href="#Z"/><use transform="matrix(0.07407407407407407,0,0,0.07407407407407407,44.22222222222222,0)" xlink:href="#ay"/></g><path fill="#333" d="M212-179c-10-28-35-45-73-45-59 0-87 40-87 99 0 60 29 101 89 101 43 0 62-24 78-52l27 14C228-24 195 4 139 4 59 4 22-46 18-125c-6-104 99-153 187-111 19 9 31 26 39 46" id="az"/><path fill="#333" d="M135-143c-3-34-86-38-87 0 15 53 115 12 119 90S17 21 10-45l28-5c4 36 97 45 98 0-10-56-113-15-118-90-4-57 82-63 122-42 12 7 21 19 24 35" id="aA"/><path fill="#333" d="M210-169c-67 3-38 105-44 169h-31v-121c0-29-5-50-35-48C34-165 62-65 56 0H25l-1-190h30c1 10-1 24 2 32 10-44 99-50 107 0 11-21 27-35 58-36 85-2 47 119 55 194h-31v-121c0-29-5-49-35-48" id="aB"/><g id="k"><use transform="matrix(0.07407407407407407,0,0,0.07407407407407407,0,0)" xlink:href="#az"/><use transform="matrix(0.07407407407407407,0,0,0.07407407407407407,19.185185185185183,0)" xlink:href="#au"/><use transform="matrix(0.07407407407407407,0,0,0.07407407407407407,34,0)" xlink:href="#ae"/><use transform="matrix(0.07407407407407407,0,0,0.07407407407407407,48.81481481481481,0)" xlink:href="#aA"/><use transform="matrix(0.07407407407407407,0,0,0.07407407407407407,62.14814814814814,0)" xlink:href="#Q"/><use transform="matrix(0.07407407407407407,0,0,0.07407407407407407,76.96296296296295,0)" xlink:href="#aB"/><use transform="matrix(0.07407407407407407,0,0,0.07407407407407407,99.11111111111109,0)" xlink:href="#ad"/><use transform="matrix(0.07407407407407407,0,0,0.07407407407407407,113.92592592592591,0)" xlink:href="#at"/><use transform="matrix(0.07407407407407407,0,0,0.07407407407407407,122.7407407407407,0)" xlink:href="#af"/></g><path fill="#333" d="M136-208V0H84v-208H4v-40h212v40h-80" id="aC"/><path fill="#333" d="M147 0L96-86 75-71V0H25v-261h50v150l67-79h53l-66 74L201 0h-54" id="aD"/><g id="l"><use transform="matrix(0.07407407407407407,0,0,0.07407407407407407,0,0)" xlink:href="#aC"/><use transform="matrix(0.07407407407407407,0,0,0.07407407407407407,14.222222222222221,0)" xlink:href="#ak"/><use transform="matrix(0.07407407407407407,0,0,0.07407407407407407,29.037037037037035,0)" xlink:href="#aa"/><use transform="matrix(0.07407407407407407,0,0,0.07407407407407407,43.85185185185185,0)" xlink:href="#aD"/><use transform="matrix(0.07407407407407407,0,0,0.07407407407407407,58.66666666666666,0)" xlink:href="#W"/><use transform="matrix(0.07407407407407407,0,0,0.07407407407407407,73.48148148148147,0)" xlink:href="#ah"/><use transform="matrix(0.07407407407407407,0,0,0.07407407407407407,82.37037037037035,0)" xlink:href="#ap"/></g><path fill="#333" d="M195-6C206 82 75 100 31 46c-4-6-6-13-8-21l49-6c3 16 16 24 34 25 40 0 42-37 40-79-11 22-30 35-61 35-53 0-70-43-70-97 0-56 18-96 73-97 30 0 46 14 59 34l2-30h47zm-90-29c32 0 41-27 41-63 0-35-9-62-40-62-32 0-39 29-40 63 0 36 9 62 39 62" id="aE"/><g id="m"><use transform="matrix(0.07407407407407407,0,0,0.07407407407407407,0,0)" xlink:href="#ax"/><use transform="matrix(0.07407407407407407,0,0,0.07407407407407407,19.185185185185183,0)" xlink:href="#aj"/><use transform="matrix(0.07407407407407407,0,0,0.07407407407407407,34,0)" xlink:href="#aj"/><use transform="matrix(0.07407407407407407,0,0,0.07407407407407407,48.81481481481481,0)" xlink:href="#aq"/><use transform="matrix(0.07407407407407407,0,0,0.07407407407407407,65.03703703703704,0)" xlink:href="#ag"/><use transform="matrix(0.07407407407407407,0,0,0.07407407407407407,81.25925925925927,0)" xlink:href="#Y"/><use transform="matrix(0.07407407407407407,0,0,0.07407407407407407,97.4814814814815,0)" xlink:href="#Z"/><use transform="matrix(0.07407407407407407,0,0,0.07407407407407407,106.2962962962963,0)" xlink:href="#ao"/><use transform="matrix(0.07407407407407407,0,0,0.07407407407407407,113.70370370370371,0)" xlink:href="#Y"/><use transform="matrix(0.07407407407407407,0,0,0.07407407407407407,129.92592592592592,0)" xlink:href="#aE"/></g><g id="n"><use transform="matrix(0.07407407407407407,0,0,0.07407407407407407,0,0)" xlink:href="#ak"/><use transform="matrix(0.07407407407407407,0,0,0.07407407407407407,14.814814814814813,0)" xlink:href="#Y"/><use transform="matrix(0.07407407407407407,0,0,0.07407407407407407,31.037037037037035,0)" xlink:href="#al"/></g><path fill="#333" d="M123 10C108 53 80 86 19 72V37c35 8 53-11 59-39L3-190h52l48 148c12-52 28-100 44-148h51" id="aF"/><g id="o"><use transform="matrix(0.07407407407407407,0,0,0.07407407407407407,0,0)" xlink:href="#ax"/><use transform="matrix(0.07407407407407407,0,0,0.07407407407407407,19.185185185185183,0)" xlink:href="#Y"/><use transform="matrix(0.07407407407407407,0,0,0.07407407407407407,35.407407407407405,0)" xlink:href="#ak"/><use transform="matrix(0.07407407407407407,0,0,0.07407407407407407,50.222222222222214,0)" xlink:href="#ar"/><use transform="matrix(0.07407407407407407,0,0,0.07407407407407407,57.62962962962962,0)" xlink:href="#aF"/><use transform="matrix(0.07407407407407407,0,0,0.07407407407407407,72.44444444444443,0)" xlink:href="#Z"/><use transform="matrix(0.07407407407407407,0,0,0.07407407407407407,81.25925925925924,0)" xlink:href="#ao"/><use transform="matrix(0.07407407407407407,0,0,0.07407407407407407,88.66666666666664,0)" xlink:href="#aj"/><use transform="matrix(0.07407407407407407,0,0,0.07407407407407407,103.48148148148145,0)" xlink:href="#aa"/></g><g id="p"><use transform="matrix(0.07407407407407407,0,0,0.07407407407407407,0,0)" xlink:href="#ag"/><use transform="matrix(0.07407407407407407,0,0,0.07407407407407407,16.22222222222222,0)" xlink:href="#aa"/><use transform="matrix(0.07407407407407407,0,0,0.07407407407407407,31.037037037037035,0)" xlink:href="#W"/><use transform="matrix(0.07407407407407407,0,0,0.07407407407407407,45.85185185185185,0)" xlink:href="#ah"/><use transform="matrix(0.07407407407407407,0,0,0.07407407407407407,54.740740740740726,0)" xlink:href="#ai"/><path fill="#8080ff" d="M-1.33 1.43h64.8v2.8h-64.8z"/><use transform="matrix(0.07407407407407407,0,0,0.07407407407407407,62.14814814814814,0)" xlink:href="#al"/><path fill="#8080ff" d="M60.8 1.43h18.9v2.8H60.8z"/><use transform="matrix(0.07407407407407407,0,0,0.07407407407407407,78.37037037037035,0)" xlink:href="#W"/><use transform="matrix(0.07407407407407407,0,0,0.07407407407407407,93.18518518518516,0)" xlink:href="#ar"/><use transform="matrix(0.07407407407407407,0,0,0.07407407407407407,100.59259259259257,0)" xlink:href="#W"/><use transform="matrix(0.07407407407407407,0,0,0.07407407407407407,115.40740740740739,0)" xlink:href="#Z"/><use transform="matrix(0.07407407407407407,0,0,0.07407407407407407,124.22222222222219,0)" xlink:href="#W"/><use transform="matrix(0.07407407407407407,0,0,0.07407407407407407,139.037037037037,0)" xlink:href="#al"/></g><g id="q"><use transform="matrix(0.07407407407407407,0,0,0.07407407407407407,0,0)" xlink:href="#ao"/><use transform="matrix(0.07407407407407407,0,0,0.07407407407407407,7.4074074074074066,0)" xlink:href="#al"/><path fill="#8080ff" d="M-1.33 1.43h26.3v2.8h-26.3z"/></g><g id="r"><use transform="matrix(0.07407407407407407,0,0,0.07407407407407407,0,0)" xlink:href="#Z"/><path fill="#8080ff" d="M-1.33 1.43h11.48v2.8H-1.33z"/><use transform="matrix(0.07407407407407407,0,0,0.07407407407407407,8.814814814814815,0)" xlink:href="#ak"/><use transform="matrix(0.07407407407407407,0,0,0.07407407407407407,23.629629629629623,0)" xlink:href="#aa"/><use transform="matrix(0.07407407407407407,0,0,0.07407407407407407,38.44444444444444,0)" xlink:href="#aD"/><use transform="matrix(0.07407407407407407,0,0,0.07407407407407407,53.25925925925926,0)" xlink:href="#ai"/><use transform="matrix(0.07407407407407407,0,0,0.07407407407407407,60.66666666666666,0)" xlink:href="#aj"/><use transform="matrix(0.07407407407407407,0,0,0.07407407407407407,75.48148148148147,0)" xlink:href="#ah"/><use transform="matrix(0.07407407407407407,0,0,0.07407407407407407,85.85185185185183,0)" xlink:href="#W"/><use transform="matrix(0.07407407407407407,0,0,0.07407407407407407,100.66666666666664,0)" xlink:href="#ak"/><use transform="matrix(0.07407407407407407,0,0,0.07407407407407407,115.48148148148145,0)" xlink:href="#Z"/><use transform="matrix(0.07407407407407407,0,0,0.07407407407407407,124.29629629629626,0)" xlink:href="#W"/><use transform="matrix(0.07407407407407407,0,0,0.07407407407407407,139.1111111111111,0)" xlink:href="#al"/><path fill="#8080ff" d="M51.93 1.43h104.74v2.8H51.93z"/></g><g id="s"><use transform="matrix(0.07407407407407407,0,0,0.07407407407407407,0,0)" xlink:href="#ao"/><use transform="matrix(0.07407407407407407,0,0,0.07407407407407407,7.4074074074074066,0)" xlink:href="#al"/></g><g id="t"><use transform="matrix(0.07407407407407407,0,0,0.07407407407407407,0,0)" xlink:href="#aC"/><use transform="matrix(0.07407407407407407,0,0,0.07407407407407407,14.222222222222221,0)" xlink:href="#ak"/><use transform="matrix(0.07407407407407407,0,0,0.07407407407407407,29.037037037037035,0)" xlink:href="#aa"/><use transform="matrix(0.07407407407407407,0,0,0.07407407407407407,43.85185185185185,0)" xlink:href="#aD"/><use transform="matrix(0.07407407407407407,0,0,0.07407407407407407,58.66666666666666,0)" xlink:href="#W"/><use transform="matrix(0.07407407407407407,0,0,0.07407407407407407,73.48148148148147,0)" xlink:href="#ah"/></g><g id="u"><use transform="matrix(0.07407407407407407,0,0,0.07407407407407407,0,0)" xlink:href="#ax"/><use transform="matrix(0.07407407407407407,0,0,0.07407407407407407,19.185185185185183,0)" xlink:href="#aj"/><use transform="matrix(0.07407407407407407,0,0,0.07407407407407407,34,0)" xlink:href="#aj"/><use transform="matrix(0.07407407407407407,0,0,0.07407407407407407,48.81481481481481,0)" xlink:href="#aq"/><use transform="matrix(0.07407407407407407,0,0,0.07407407407407407,65.03703703703704,0)" xlink:href="#ag"/><use transform="matrix(0.07407407407407407,0,0,0.07407407407407407,81.25925925925927,0)" xlink:href="#Y"/><use transform="matrix(0.07407407407407407,0,0,0.07407407407407407,97.4814814814815,0)" xlink:href="#Z"/><use transform="matrix(0.07407407407407407,0,0,0.07407407407407407,106.2962962962963,0)" xlink:href="#ao"/><use transform="matrix(0.07407407407407407,0,0,0.07407407407407407,113.70370370370371,0)" xlink:href="#Y"/><use transform="matrix(0.07407407407407407,0,0,0.07407407407407407,129.92592592592592,0)" xlink:href="#aE"/></g><path fill="#333" d="M135-194c53 0 70 44 70 98 0 56-19 98-73 100-31 1-45-17-59-34 3 33 2 69 2 105H25l-1-265h48c2 10 0 23 3 31 11-24 29-35 60-35zM114-30c33 0 39-31 40-66 0-38-9-64-40-64-56 0-55 130 0 130" id="aG"/><g id="v"><use transform="matrix(0.07407407407407407,0,0,0.07407407407407407,0,0)" xlink:href="#Z"/><path fill="#8080ff" d="M-1.33 1.43h11.48v2.8H-1.33z"/><use transform="matrix(0.07407407407407407,0,0,0.07407407407407407,8.814814814814815,0)" xlink:href="#ak"/><use transform="matrix(0.07407407407407407,0,0,0.07407407407407407,23.629629629629623,0)" xlink:href="#aa"/><use transform="matrix(0.07407407407407407,0,0,0.07407407407407407,38.44444444444444,0)" xlink:href="#aD"/><use transform="matrix(0.07407407407407407,0,0,0.07407407407407407,53.25925925925926,0)" xlink:href="#ai"/><path fill="#8080ff" d="M51.93 1.43H62v2.8H51.93z"/><use transform="matrix(0.07407407407407407,0,0,0.07407407407407407,60.66666666666666,0)" xlink:href="#ak"/><path fill="#8080ff" d="M59.33 1.43H76.8v2.8H59.34z"/><use transform="matrix(0.07407407407407407,0,0,0.07407407407407407,75.48148148148147,0)" xlink:href="#aG"/><use transform="matrix(0.07407407407407407,0,0,0.07407407407407407,91.7037037037037,0)" xlink:href="#aG"/><use transform="matrix(0.07407407407407407,0,0,0.07407407407407407,107.92592592592592,0)" xlink:href="#ah"/><use transform="matrix(0.07407407407407407,0,0,0.07407407407407407,118.29629629629629,0)" xlink:href="#ao"/><use transform="matrix(0.07407407407407407,0,0,0.07407407407407407,125.7037037037037,0)" xlink:href="#aa"/><use transform="matrix(0.07407407407407407,0,0,0.07407407407407407,140.5185185185185,0)" xlink:href="#W"/><use transform="matrix(0.07407407407407407,0,0,0.07407407407407407,155.33333333333331,0)" xlink:href="#al"/></g><g id="w"><use transform="matrix(0.07407407407407407,0,0,0.07407407407407407,0,0)" xlink:href="#ao"/><use transform="matrix(0.07407407407407407,0,0,0.07407407407407407,7.4074074074074066,0)" xlink:href="#al"/><use transform="matrix(0.07407407407407407,0,0,0.07407407407407407,23.629629629629623,0)" xlink:href="#ap"/><path fill="#8080ff" d="M-1.33 1.43h33.7v2.8h-33.7z"/></g><path fill="#333" d="M121-226c-27-7-43 5-38 36h38v33H83V0H34v-157H6v-33h28c-9-59 32-81 87-68v32" id="aH"/><g id="x"><use transform="matrix(0.07407407407407407,0,0,0.07407407407407407,0,0)" xlink:href="#aH"/><use transform="matrix(0.07407407407407407,0,0,0.07407407407407407,8.814814814814815,0)" xlink:href="#W"/><use transform="matrix(0.07407407407407407,0,0,0.07407407407407407,23.629629629629623,0)" xlink:href="#W"/><use transform="matrix(0.07407407407407407,0,0,0.07407407407407407,38.44444444444444,0)" xlink:href="#ap"/><path fill="#8080ff" d="M-1.33 1.43H47.2v2.8H-1.34z"/></g><path fill="#333" d="M220-157c-53 9-28 100-34 157h-49v-107c1-27-5-49-29-50C55-147 81-57 75 0H25l-1-190h47c2 12-1 28 3 38 10-53 101-56 108 0 13-22 24-43 59-42 82 1 51 116 57 194h-49v-107c-1-25-5-48-29-50" id="aI"/><g id="y"><use transform="matrix(0.07407407407407407,0,0,0.07407407407407407,0,0)" xlink:href="#ak"/><use transform="matrix(0.07407407407407407,0,0,0.07407407407407407,14.814814814814813,0)" xlink:href="#aI"/><use transform="matrix(0.07407407407407407,0,0,0.07407407407407407,38.51851851851852,0)" xlink:href="#aq"/><use transform="matrix(0.07407407407407407,0,0,0.07407407407407407,54.74074074074074,0)" xlink:href="#ag"/><use transform="matrix(0.07407407407407407,0,0,0.07407407407407407,70.96296296296296,0)" xlink:href="#Y"/><use transform="matrix(0.07407407407407407,0,0,0.07407407407407407,87.18518518518519,0)" xlink:href="#Z"/></g><g id="z"><use transform="matrix(0.07407407407407407,0,0,0.07407407407407407,0,0)" xlink:href="#ax"/><use transform="matrix(0.07407407407407407,0,0,0.07407407407407407,19.185185185185183,0)" xlink:href="#aj"/><use transform="matrix(0.07407407407407407,0,0,0.07407407407407407,34,0)" xlink:href="#aj"/><use transform="matrix(0.07407407407407407,0,0,0.07407407407407407,48.81481481481481,0)" xlink:href="#aq"/><use transform="matrix(0.07407407407407407,0,0,0.07407407407407407,65.03703703703704,0)" xlink:href="#ag"/><use transform="matrix(0.07407407407407407,0,0,0.07407407407407407,81.25925925925927,0)" xlink:href="#Y"/><use transform="matrix(0.07407407407407407,0,0,0.07407407407407407,97.4814814814815,0)" xlink:href="#Z"/><use transform="matrix(0.07407407407407407,0,0,0.07407407407407407,106.2962962962963,0)" xlink:href="#ao"/><use transform="matrix(0.07407407407407407,0,0,0.07407407407407407,113.70370370370371,0)" xlink:href="#Y"/><use transform="matrix(0.07407407407407407,0,0,0.07407407407407407,129.92592592592592,0)" xlink:href="#aE"/></g><g id="A"><use transform="matrix(0.07407407407407407,0,0,0.07407407407407407,0,0)" xlink:href="#aC"/><use transform="matrix(0.07407407407407407,0,0,0.07407407407407407,14.222222222222221,0)" xlink:href="#ak"/><use transform="matrix(0.07407407407407407,0,0,0.07407407407407407,29.037037037037035,0)" xlink:href="#aa"/><use transform="matrix(0.07407407407407407,0,0,0.07407407407407407,43.85185185185185,0)" xlink:href="#aD"/><use transform="matrix(0.07407407407407407,0,0,0.07407407407407407,58.66666666666666,0)" xlink:href="#W"/><use transform="matrix(0.07407407407407407,0,0,0.07407407407407407,73.48148148148147,0)" xlink:href="#ah"/></g><g id="B"><use transform="matrix(0.07407407407407407,0,0,0.07407407407407407,0,0)" xlink:href="#Z"/><path fill="#8080ff" d="M-1.33 1.43h11.48v2.8H-1.33z"/><use transform="matrix(0.07407407407407407,0,0,0.07407407407407407,8.814814814814815,0)" xlink:href="#ak"/><use transform="matrix(0.07407407407407407,0,0,0.07407407407407407,23.629629629629623,0)" xlink:href="#aa"/><use transform="matrix(0.07407407407407407,0,0,0.07407407407407407,38.44444444444444,0)" xlink:href="#aD"/><use transform="matrix(0.07407407407407407,0,0,0.07407407407407407,53.25925925925926,0)" xlink:href="#ai"/><path fill="#8080ff" d="M51.93 1.43H62v2.8H51.93z"/><use transform="matrix(0.07407407407407407,0,0,0.07407407407407407,60.66666666666666,0)" xlink:href="#ak"/><path fill="#8080ff" d="M59.33 1.43H76.8v2.8H59.34z"/><use transform="matrix(0.07407407407407407,0,0,0.07407407407407407,75.48148148148147,0)" xlink:href="#aa"/><use transform="matrix(0.07407407407407407,0,0,0.07407407407407407,90.29629629629628,0)" xlink:href="#aa"/><use transform="matrix(0.07407407407407407,0,0,0.07407407407407407,105.11111111111109,0)" xlink:href="#ao"/><use transform="matrix(0.07407407407407407,0,0,0.07407407407407407,112.51851851851849,0)" xlink:href="#aE"/><use transform="matrix(0.07407407407407407,0,0,0.07407407407407407,128.7407407407407,0)" xlink:href="#Y"/><use transform="matrix(0.07407407407407407,0,0,0.07407407407407407,144.96296296296293,0)" xlink:href="#W"/><use transform="matrix(0.07407407407407407,0,0,0.07407407407407407,159.77777777777774,0)" xlink:href="#al"/></g><g id="C"><use transform="matrix(0.07407407407407407,0,0,0.07407407407407407,0,0)" xlink:href="#ao"/><path fill="#8080ff" d="M-1.33 1.43H8.74v2.8H-1.33z"/><use transform="matrix(0.07407407407407407,0,0,0.07407407407407407,7.4074074074074066,0)" xlink:href="#al"/><use transform="matrix(0.07407407407407407,0,0,0.07407407407407407,23.629629629629623,0)" xlink:href="#ap"/><path fill="#8080ff" d="M22.3 1.43h10.07v2.8H22.3z"/></g><path fill="#333" d="M-4 44V30h207v14H-4" id="aJ"/><g id="D"><use transform="matrix(0.07407407407407407,0,0,0.07407407407407407,0,0)" xlink:href="#ag"/><use transform="matrix(0.07407407407407407,0,0,0.07407407407407407,16.22222222222222,0)" xlink:href="#aa"/><use transform="matrix(0.07407407407407407,0,0,0.07407407407407407,31.037037037037035,0)" xlink:href="#W"/><use transform="matrix(0.07407407407407407,0,0,0.07407407407407407,45.85185185185185,0)" xlink:href="#ah"/><use transform="matrix(0.07407407407407407,0,0,0.07407407407407407,56.22222222222221,0)" xlink:href="#aJ"/><use transform="matrix(0.07407407407407407,0,0,0.07407407407407407,71.03703703703702,0)" xlink:href="#ao"/><use transform="matrix(0.07407407407407407,0,0,0.07407407407407407,78.44444444444443,0)" xlink:href="#al"/></g><g id="E"><use transform="matrix(0.07407407407407407,0,0,0.07407407407407407,0,0)" xlink:href="#az"/><use transform="matrix(0.07407407407407407,0,0,0.07407407407407407,19.185185185185183,0)" xlink:href="#au"/><use transform="matrix(0.07407407407407407,0,0,0.07407407407407407,34,0)" xlink:href="#ae"/><use transform="matrix(0.07407407407407407,0,0,0.07407407407407407,48.81481481481481,0)" xlink:href="#aA"/><use transform="matrix(0.07407407407407407,0,0,0.07407407407407407,62.14814814814814,0)" xlink:href="#Q"/><use transform="matrix(0.07407407407407407,0,0,0.07407407407407407,76.96296296296295,0)" xlink:href="#aB"/><use transform="matrix(0.07407407407407407,0,0,0.07407407407407407,99.11111111111109,0)" xlink:href="#ad"/><use transform="matrix(0.07407407407407407,0,0,0.07407407407407407,113.92592592592591,0)" xlink:href="#at"/><use transform="matrix(0.07407407407407407,0,0,0.07407407407407407,122.7407407407407,0)" xlink:href="#af"/></g><g id="F"><use transform="matrix(0.07407407407407407,0,0,0.07407407407407407,0,0)" xlink:href="#ax"/><use transform="matrix(0.07407407407407407,0,0,0.07407407407407407,19.185185185185183,0)" xlink:href="#aj"/><use transform="matrix(0.07407407407407407,0,0,0.07407407407407407,34,0)" xlink:href="#aj"/><use transform="matrix(0.07407407407407407,0,0,0.07407407407407407,48.81481481481481,0)" xlink:href="#aq"/><use transform="matrix(0.07407407407407407,0,0,0.07407407407407407,65.03703703703704,0)" xlink:href="#ag"/><use transform="matrix(0.07407407407407407,0,0,0.07407407407407407,81.25925925925927,0)" xlink:href="#Y"/><use transform="matrix(0.07407407407407407,0,0,0.07407407407407407,97.4814814814815,0)" xlink:href="#Z"/><use transform="matrix(0.07407407407407407,0,0,0.07407407407407407,106.2962962962963,0)" xlink:href="#ao"/><use transform="matrix(0.07407407407407407,0,0,0.07407407407407407,113.70370370370371,0)" xlink:href="#Y"/><use transform="matrix(0.07407407407407407,0,0,0.07407407407407407,129.92592592592592,0)" xlink:href="#aE"/></g><g id="G"><use transform="matrix(0.07407407407407407,0,0,0.07407407407407407,0,0)" xlink:href="#Z"/><path fill="#8080ff" d="M-1.33 1.43h11.48v2.8H-1.33z"/><use transform="matrix(0.07407407407407407,0,0,0.07407407407407407,8.814814814814815,0)" xlink:href="#ak"/><use transform="matrix(0.07407407407407407,0,0,0.07407407407407407,23.629629629629623,0)" xlink:href="#aa"/><use transform="matrix(0.07407407407407407,0,0,0.07407407407407407,38.44444444444444,0)" xlink:href="#aD"/><use transform="matrix(0.07407407407407407,0,0,0.07407407407407407,53.25925925925926,0)" xlink:href="#ai"/><path fill="#8080ff" d="M51.93 1.43H62v2.8H51.93z"/><use transform="matrix(0.07407407407407407,0,0,0.07407407407407407,60.66666666666666,0)" xlink:href="#aj"/><use transform="matrix(0.07407407407407407,0,0,0.07407407407407407,75.48148148148147,0)" xlink:href="#aq"/><use transform="matrix(0.07407407407407407,0,0,0.07407407407407407,91.7037037037037,0)" xlink:href="#aI"/><use transform="matrix(0.07407407407407407,0,0,0.07407407407407407,115.40740740740739,0)" xlink:href="#aG"/><use transform="matrix(0.07407407407407407,0,0,0.07407407407407407,131.62962962962962,0)" xlink:href="#ar"/><use transform="matrix(0.07407407407407407,0,0,0.07407407407407407,139.03703703703704,0)" xlink:href="#W"/><use transform="matrix(0.07407407407407407,0,0,0.07407407407407407,153.85185185185185,0)" xlink:href="#Z"/><use transform="matrix(0.07407407407407407,0,0,0.07407407407407407,162.66666666666666,0)" xlink:href="#W"/><use transform="matrix(0.07407407407407407,0,0,0.07407407407407407,177.48148148148147,0)" xlink:href="#al"/></g><g id="H"><use transform="matrix(0.07407407407407407,0,0,0.07407407407407407,0,0)" xlink:href="#ao"/><use transform="matrix(0.07407407407407407,0,0,0.07407407407407407,7.4074074074074066,0)" xlink:href="#al"/><use transform="matrix(0.07407407407407407,0,0,0.07407407407407407,23.629629629629623,0)" xlink:href="#ap"/><path fill="#8080ff" d="M-1.33 1.43h33.7v2.8h-33.7z"/></g><g id="I"><use transform="matrix(0.07407407407407407,0,0,0.07407407407407407,0,0)" xlink:href="#ax"/><use transform="matrix(0.07407407407407407,0,0,0.07407407407407407,19.185185185185183,0)" xlink:href="#aj"/><use transform="matrix(0.07407407407407407,0,0,0.07407407407407407,34,0)" xlink:href="#aj"/><use transform="matrix(0.07407407407407407,0,0,0.07407407407407407,48.81481481481481,0)" xlink:href="#aq"/><use transform="matrix(0.07407407407407407,0,0,0.07407407407407407,65.03703703703704,0)" xlink:href="#ag"/><use transform="matrix(0.07407407407407407,0,0,0.07407407407407407,81.25925925925927,0)" xlink:href="#Y"/><use transform="matrix(0.07407407407407407,0,0,0.07407407407407407,97.4814814814815,0)" xlink:href="#Z"/><use transform="matrix(0.07407407407407407,0,0,0.07407407407407407,106.2962962962963,0)" xlink:href="#ao"/><use transform="matrix(0.07407407407407407,0,0,0.07407407407407407,113.70370370370371,0)" xlink:href="#Y"/><use transform="matrix(0.07407407407407407,0,0,0.07407407407407407,129.92592592592592,0)" xlink:href="#aE"/></g><g id="J"><use transform="matrix(0.07407407407407407,0,0,0.07407407407407407,0,0)" xlink:href="#ak"/><use transform="matrix(0.07407407407407407,0,0,0.07407407407407407,14.814814814814813,0)" xlink:href="#Y"/><use transform="matrix(0.07407407407407407,0,0,0.07407407407407407,31.037037037037035,0)" xlink:href="#al"/></g><path fill="#333" d="M135-194c52 0 70 43 70 98 0 56-19 99-73 100-30 1-46-15-58-35L72 0H24l1-261h50v104c11-23 29-37 60-37zM114-30c31 0 40-27 40-66 0-37-7-63-39-63s-41 28-41 65c0 36 8 64 40 64" id="aK"/><g id="K"><use transform="matrix(0.07407407407407407,0,0,0.07407407407407407,0,0)" xlink:href="#ag"/><use transform="matrix(0.07407407407407407,0,0,0.07407407407407407,16.22222222222222,0)" xlink:href="#aa"/><use transform="matrix(0.07407407407407407,0,0,0.07407407407407407,31.037037037037035,0)" xlink:href="#W"/><use transform="matrix(0.07407407407407407,0,0,0.07407407407407407,45.85185185185185,0)" xlink:href="#ah"/><use transform="matrix(0.07407407407407407,0,0,0.07407407407407407,54.740740740740726,0)" xlink:href="#ai"/><use transform="matrix(0.07407407407407407,0,0,0.07407407407407407,62.14814814814814,0)" xlink:href="#aK"/><use transform="matrix(0.07407407407407407,0,0,0.07407407407407407,78.37037037037035,0)" xlink:href="#ak"/><use transform="matrix(0.07407407407407407,0,0,0.07407407407407407,93.18518518518516,0)" xlink:href="#ar"/><use transform="matrix(0.07407407407407407,0,0,0.07407407407407407,100.59259259259257,0)" xlink:href="#ak"/><use transform="matrix(0.07407407407407407,0,0,0.07407407407407407,115.40740740740739,0)" xlink:href="#Y"/><use transform="matrix(0.07407407407407407,0,0,0.07407407407407407,131.6296296296296,0)" xlink:href="#aj"/><use transform="matrix(0.07407407407407407,0,0,0.07407407407407407,146.4444444444444,0)" xlink:href="#W"/><use transform="matrix(0.07407407407407407,0,0,0.07407407407407407,161.2592592592592,0)" xlink:href="#aJ"/><use transform="matrix(0.07407407407407407,0,0,0.07407407407407407,176.07407407407402,0)" xlink:href="#aj"/><use transform="matrix(0.07407407407407407,0,0,0.07407407407407407,190.88888888888886,0)" xlink:href="#ay"/><use transform="matrix(0.07407407407407407,0,0,0.07407407407407407,207.11111111111106,0)" xlink:href="#ak"/><use transform="matrix(0.07407407407407407,0,0,0.07407407407407407,221.92592592592587,0)" xlink:href="#Y"/><use transform="matrix(0.07407407407407407,0,0,0.07407407407407407,238.1481481481481,0)" xlink:href="#aE"/><use transform="matrix(0.07407407407407407,0,0,0.07407407407407407,254.37037037037032,0)" xlink:href="#W"/><use transform="matrix(0.07407407407407407,0,0,0.07407407407407407,269.18518518518516,0)" xlink:href="#al"/></g><g id="L"><use transform="matrix(0.07407407407407407,0,0,0.07407407407407407,0,0)" xlink:href="#aa"/><use transform="matrix(0.07407407407407407,0,0,0.07407407407407407,14.814814814814813,0)" xlink:href="#ak"/><use transform="matrix(0.07407407407407407,0,0,0.07407407407407407,29.629629629629626,0)" xlink:href="#ar"/><use transform="matrix(0.07407407407407407,0,0,0.07407407407407407,37.03703703703703,0)" xlink:href="#al"/><use transform="matrix(0.07407407407407407,0,0,0.07407407407407407,53.25925925925926,0)" xlink:href="#aq"/></g><g id="M"><use transform="matrix(0.07407407407407407,0,0,0.07407407407407407,0,0)" xlink:href="#ax"/><use transform="matrix(0.07407407407407407,0,0,0.07407407407407407,19.185185185185183,0)" xlink:href="#Y"/><use transform="matrix(0.07407407407407407,0,0,0.07407407407407407,35.407407407407405,0)" xlink:href="#ak"/><use transform="matrix(0.07407407407407407,0,0,0.07407407407407407,50.222222222222214,0)" xlink:href="#ar"/><use transform="matrix(0.07407407407407407,0,0,0.07407407407407407,57.62962962962962,0)" xlink:href="#aF"/><use transform="matrix(0.07407407407407407,0,0,0.07407407407407407,72.44444444444443,0)" xlink:href="#Z"/><use transform="matrix(0.07407407407407407,0,0,0.07407407407407407,81.25925925925924,0)" xlink:href="#ao"/><use transform="matrix(0.07407407407407407,0,0,0.07407407407407407,88.66666666666664,0)" xlink:href="#aj"/><use transform="matrix(0.07407407407407407,0,0,0.07407407407407407,103.48148148148145,0)" xlink:href="#aa"/></g><path fill="#333" d="M24-231v-30h32v30H24zM24 0v-190h32V0H24" id="aL"/><path fill="#333" d="M177-190C167-65 218 103 67 71c-23-6-38-20-44-43l32-5c15 47 100 32 89-28v-30C133-14 115 1 83 1 29 1 15-40 15-95c0-56 16-97 71-98 29-1 48 16 59 35 1-10 0-23 2-32h30zM94-22c36 0 50-32 50-73 0-42-14-75-50-75-39 0-46 34-46 75s6 73 46 73" id="aM"/><g id="N"><use transform="matrix(0.11111111111111108,0,0,0.11111111111111108,0,0)" xlink:href="#P"/><use transform="matrix(0.11111111111111108,0,0,0.11111111111111108,26.666666666666657,0)" xlink:href="#aw"/><use transform="matrix(0.11111111111111108,0,0,0.11111111111111108,46.66666666666665,0)" xlink:href="#aw"/><use transform="matrix(0.11111111111111108,0,0,0.11111111111111108,66.66666666666664,0)" xlink:href="#au"/><use transform="matrix(0.11111111111111108,0,0,0.11111111111111108,88.88888888888886,0)" xlink:href="#Q"/><use transform="matrix(0.11111111111111108,0,0,0.11111111111111108,111.11111111111107,0)" xlink:href="#ae"/><use transform="matrix(0.11111111111111108,0,0,0.11111111111111108,133.3333333333333,0)" xlink:href="#R"/><use transform="matrix(0.11111111111111108,0,0,0.11111111111111108,144.4444444444444,0)" xlink:href="#aL"/><use transform="matrix(0.11111111111111108,0,0,0.11111111111111108,153.22222222222217,0)" xlink:href="#ae"/><use transform="matrix(0.11111111111111108,0,0,0.11111111111111108,175.4444444444444,0)" xlink:href="#aM"/></g><path fill="#333" d="M24 0v-261h32V0H24" id="aN"/><path fill="#333" d="M179-190L93 31C79 59 56 82 12 73V49c39 6 53-20 64-50L1-190h34L92-34l54-156h33" id="aO"/><g id="O"><use transform="matrix(0.11111111111111108,0,0,0.11111111111111108,0,0)" xlink:href="#P"/><use transform="matrix(0.11111111111111108,0,0,0.11111111111111108,26.666666666666657,0)" xlink:href="#ae"/><use transform="matrix(0.11111111111111108,0,0,0.11111111111111108,48.88888888888887,0)" xlink:href="#an"/><use transform="matrix(0.11111111111111108,0,0,0.11111111111111108,71.11111111111109,0)" xlink:href="#aN"/><use transform="matrix(0.11111111111111108,0,0,0.11111111111111108,79.88888888888886,0)" xlink:href="#aO"/><use transform="matrix(0.11111111111111108,0,0,0.11111111111111108,99.88888888888886,0)" xlink:href="#R"/><use transform="matrix(0.11111111111111108,0,0,0.11111111111111108,110.99999999999997,0)" xlink:href="#aL"/><use transform="matrix(0.11111111111111108,0,0,0.11111111111111108,119.77777777777774,0)" xlink:href="#aw"/><use transform="matrix(0.11111111111111108,0,0,0.11111111111111108,139.77777777777774,0)" xlink:href="#aA"/></g></defs></g></svg>