<svg version="1.1" xmlns="http://www.w3.org/2000/svg" viewBox="0 0 819.23046875 780.0703125" width="819.23046875" height="780.0703125">
  <!-- svg-source:excalidraw -->
  
  <defs>
    <style>
      @font-face {
        font-family: "Virgil";
        src: url("https://excalidraw.com/Virgil.woff2");
      }
      @font-face {
        font-family: "Cascadia";
        src: url("https://excalidraw.com/Cascadia.woff2");
      }
    </style>
  </defs>
  <rect x="0" y="0" width="819.23046875" height="780.0703125" fill="#ffffff"></rect><g stroke-linecap="round" transform="translate(10 10) rotate(0 100.0625 69.16015625)"><path d="M0 0 C40.06 0, 80.12 0, 200.13 0 M0 0 C55.58 0, 111.16 0, 200.13 0 M200.13 0 C200.13 44.34, 200.13 88.68, 200.13 138.32 M200.13 0 C200.13 50.82, 200.13 101.65, 200.13 138.32 M200.13 138.32 C135.47 138.32, 70.81 138.32, 0 138.32 M200.13 138.32 C146.5 138.32, 92.87 138.32, 0 138.32 M0 138.32 C0 105.88, 0 73.43, 0 0 M0 138.32 C0 98.71, 0 59.09, 0 0" stroke="#000000" stroke-width="1" fill="none"></path></g><g transform="translate(75.0625 66.66015625) rotate(0 29.5 11.5)"><text x="29.5" y="18" font-family="Helvetica, Segoe UI Emoji" font-size="20px" fill="#000000" text-anchor="middle" style="white-space: pre;" direction="ltr">Tasker</text></g><g stroke-linecap="round" transform="translate(571.0625 16.5390625) rotate(0 119.083984375 62.16015625)"><path d="M0 0 C53.01 0, 106.02 0, 238.17 0 M0 0 C48.77 0, 97.54 0, 238.17 0 M238.17 0 C238.17 36.08, 238.17 72.17, 238.17 124.32 M238.17 0 C238.17 39.44, 238.17 78.87, 238.17 124.32 M238.17 124.32 C186.71 124.32, 135.26 124.32, 0 124.32 M238.17 124.32 C166.44 124.32, 94.72 124.32, 0 124.32 M0 124.32 C0 85.05, 0 45.77, 0 0 M0 124.32 C0 93.29, 0 62.25, 0 0" stroke="#000000" stroke-width="1" fill="none"></path></g><g transform="translate(658.392578125 68.15234375) rotate(0 40 11.5)"><text x="40" y="18" font-family="Helvetica, Segoe UI Emoji" font-size="20px" fill="#000000" text-anchor="middle" style="white-space: pre;" direction="ltr">Analytics</text></g><g stroke-linecap="round"><g transform="translate(210.39453125 69.63671875) rotate(0 181.1171875 -0.865234375)"><path d="M0 0 C60.37 -0.29, 301.86 -1.44, 362.23 -1.73 M0 0 C60.37 -0.29, 301.86 -1.44, 362.23 -1.73" stroke="#000000" stroke-width="1" fill="none"></path></g><g transform="translate(210.39453125 69.63671875) rotate(0 181.1171875 -0.865234375)"><path d="M334.09 8.66 C344.55 4.8, 355 0.94, 362.23 -1.73 M334.09 8.66 C340.73 6.21, 347.37 3.76, 362.23 -1.73" stroke="#000000" stroke-width="1" fill="none"></path></g><g transform="translate(210.39453125 69.63671875) rotate(0 181.1171875 -0.865234375)"><path d="M333.99 -11.86 C344.49 -8.09, 354.98 -4.33, 362.23 -1.73 M333.99 -11.86 C340.66 -9.47, 347.32 -7.08, 362.23 -1.73" stroke="#000000" stroke-width="1" fill="none"></path></g></g><g transform="translate(343.69140625 42.22265625) rotate(0 54 9)"><text x="0" y="14" font-family="Helvetica, Segoe UI Emoji" font-size="16px" fill="#000000" text-anchor="start" style="white-space: pre;" direction="ltr">task.completed</text></g><g stroke-linecap="round" transform="translate(11.10546875 401.65234375) rotate(0 228.46875 184.208984375)"><path d="M0 0 C117.91 0, 235.82 0, 456.94 0 M0 0 C132.59 0, 265.17 0, 456.94 0 M456.94 0 C456.94 92.59, 456.94 185.19, 456.94 368.42 M456.94 0 C456.94 103.85, 456.94 207.69, 456.94 368.42 M456.94 368.42 C325.66 368.42, 194.39 368.42, 0 368.42 M456.94 368.42 C297.01 368.42, 137.09 368.42, 0 368.42 M0 368.42 C0 259.1, 0 149.79, 0 0 M0 368.42 C0 263.34, 0 158.26, 0 0" stroke="#000000" stroke-width="1" fill="none"></path></g><g stroke-linecap="round"><g transform="translate(58.5049649976587 149.94184815779522) rotate(0 -1.0043652286706788 119.1474108367074)"><path d="M0 0 C-0.33 39.72, -1.67 198.58, -2.01 238.29 M0 0 C-0.33 39.72, -1.67 198.58, -2.01 238.29" stroke="#000000" stroke-width="1" fill="none"></path></g><g transform="translate(58.5049649976587 149.94184815779522) rotate(0 -1.0043652286706788 119.1474108367074)"><path d="M-12.03 210.02 C-9.71 216.56, -7.4 223.1, -2.01 238.29 M-12.03 210.02 C-8.41 220.22, -4.8 230.43, -2.01 238.29" stroke="#000000" stroke-width="1" fill="none"></path></g><g transform="translate(58.5049649976587 149.94184815779522) rotate(0 -1.0043652286706788 119.1474108367074)"><path d="M8.49 210.19 C6.06 216.69, 3.63 223.19, -2.01 238.29 M8.49 210.19 C4.7 220.33, 0.91 230.48, -2.01 238.29" stroke="#000000" stroke-width="1" fill="none"></path></g></g><g transform="translate(10.328125 232.5546875) rotate(0 54 27)"><text x="0" y="14" font-family="Helvetica, Segoe UI Emoji" font-size="16px" fill="#000000" text-anchor="start" style="white-space: pre;" direction="ltr">task.created</text><text x="0" y="32" font-family="Helvetica, Segoe UI Emoji" font-size="16px" fill="#000000" text-anchor="start" style="white-space: pre;" direction="ltr">task.assigned</text><text x="0" y="50" font-family="Helvetica, Segoe UI Emoji" font-size="16px" fill="#000000" text-anchor="start" style="white-space: pre;" direction="ltr">task.completed</text></g><g stroke-linecap="round"><g transform="translate(188.5218674587183 388.4330276647712) rotate(0 -0.1748799398736196 -118.14978635974359)"><path d="M0 0 C-0.06 -39.38, -0.29 -196.92, -0.35 -236.3 M0 0 C-0.06 -39.38, -0.29 -196.92, -0.35 -236.3" stroke="#000000" stroke-width="1" fill="none"></path></g><g transform="translate(188.5218674587183 388.4330276647712) rotate(0 -0.1748799398736196 -118.14978635974359)"><path d="M9.95 -208.12 C5.85 -219.34, 1.75 -230.55, -0.35 -236.3 M9.95 -208.12 C6.62 -217.23, 3.29 -226.33, -0.35 -236.3" stroke="#000000" stroke-width="1" fill="none"></path></g><g transform="translate(188.5218674587183 388.4330276647712) rotate(0 -0.1748799398736196 -118.14978635974359)"><path d="M-10.57 -208.09 C-6.5 -219.32, -2.43 -230.54, -0.35 -236.3 M-10.57 -208.09 C-7.27 -217.21, -3.96 -226.32, -0.35 -236.3" stroke="#000000" stroke-width="1" fill="none"></path></g></g><g transform="translate(148.05078125 302.71484375) rotate(0 47.5 9)"><text x="0" y="14" font-family="Helvetica, Segoe UI Emoji" font-size="16px" fill="#000000" text-anchor="start" style="white-space: pre;" direction="ltr">task.apprised</text></g><g transform="translate(69.50390625 607.8671875) rotate(0 49.5 11.5)"><text x="0" y="18" font-family="Helvetica, Segoe UI Emoji" font-size="20px" fill="#000000" text-anchor="start" style="white-space: pre;" direction="ltr">Accounting</text></g><g stroke-linecap="round" transform="translate(33.0078125 423.015625) rotate(0 209.560546875 42.4921875)"><path d="M0 0 C104.1 0, 208.21 0, 419.12 0 M0 0 C90.03 0, 180.07 0, 419.12 0 M419.12 0 C419.12 29.79, 419.12 59.58, 419.12 84.98 M419.12 0 C419.12 29.36, 419.12 58.72, 419.12 84.98 M419.12 84.98 C324.11 84.98, 229.09 84.98, 0 84.98 M419.12 84.98 C267.78 84.98, 116.45 84.98, 0 84.98 M0 84.98 C0 64.55, 0 44.12, 0 0 M0 84.98 C0 51.46, 0 17.93, 0 0" stroke="#000000" stroke-width="1" fill="none"></path></g><g transform="translate(132.412109375 453) rotate(0 22 11.5)"><text x="22" y="18" font-family="Helvetica, Segoe UI Emoji" font-size="20px" fill="#000000" text-anchor="middle" style="white-space: pre;" direction="ltr">Math</text></g><g stroke-linecap="round" transform="translate(240.15234375 523.6484375) rotate(0 103.689453125 45.64453125)"><path d="M0 0 C71.72 0, 143.43 0, 207.38 0 M0 0 C49.23 0, 98.47 0, 207.38 0 M207.38 0 C207.38 28.57, 207.38 57.14, 207.38 91.29 M207.38 0 C207.38 24.78, 207.38 49.56, 207.38 91.29 M207.38 91.29 C162.96 91.29, 118.54 91.29, 0 91.29 M207.38 91.29 C158.24 91.29, 109.1 91.29, 0 91.29 M0 91.29 C0 58.53, 0 25.77, 0 0 M0 91.29 C0 60.78, 0 30.26, 0 0" stroke="#000000" stroke-width="1" fill="none"></path></g><g transform="translate(315.111328125 556.6328125) rotate(0 31 11.5)"><text x="31" y="18" font-family="Helvetica, Segoe UI Emoji" font-size="20px" fill="#000000" text-anchor="middle" style="white-space: pre;" direction="ltr">Logger</text></g><g stroke-linecap="round" transform="translate(263.64453125 652.98046875) rotate(0 84.685546875 42.87109375)"><path d="M0 0 C57.58 0, 115.16 0, 169.37 0 M0 0 C62.36 0, 124.72 0, 169.37 0 M169.37 0 C169.37 19.8, 169.37 39.59, 169.37 85.74 M169.37 0 C169.37 29.24, 169.37 58.48, 169.37 85.74 M169.37 85.74 C119.44 85.74, 69.5 85.74, 0 85.74 M169.37 85.74 C135 85.74, 100.62 85.74, 0 85.74 M0 85.74 C0 65.24, 0 44.74, 0 0 M0 85.74 C0 64.9, 0 44.06, 0 0" stroke="#000000" stroke-width="1" fill="none"></path></g><g transform="translate(320.654296875 684.86328125) rotate(0 27 11.5)"><text x="27" y="18" font-family="Helvetica, Segoe UI Emoji" font-size="20px" fill="#000000" text-anchor="middle" style="white-space: pre;" direction="ltr">Mailer</text></g><g stroke-linecap="round"><g transform="translate(453.9453125 461.97265625) rotate(0 111.849609375 -161.587890625)"><path d="M0 0 C86.45 -0.67, 172.89 -1.33, 223.7 -1.72 M0 0 C56.32 -0.43, 112.63 -0.87, 223.7 -1.72 M223.7 -1.72 C222.67 -93.05, 221.65 -184.38, 220.09 -323.18 M223.7 -1.72 C222.81 -80.54, 221.93 -159.35, 220.09 -323.18" stroke="#000000" stroke-width="1" fill="none"></path></g><g transform="translate(453.9453125 461.97265625) rotate(0 111.849609375 -161.587890625)"><path d="M230.66 -295.1 C226.58 -305.95, 222.49 -316.8, 220.09 -323.18 M230.66 -295.1 C228 -302.17, 225.34 -309.24, 220.09 -323.18" stroke="#000000" stroke-width="1" fill="none"></path></g><g transform="translate(453.9453125 461.97265625) rotate(0 111.849609375 -161.587890625)"><path d="M210.14 -294.87 C213.99 -305.81, 217.83 -316.75, 220.09 -323.18 M210.14 -294.87 C212.65 -302, 215.15 -309.12, 220.09 -323.18" stroke="#000000" stroke-width="1" fill="none"></path></g></g><g transform="translate(478.52734375 429.70703125) rotate(0 93.5 9)"><text x="0" y="14" font-family="Helvetica, Segoe UI Emoji" font-size="16px" fill="#000000" text-anchor="start" style="white-space: pre;" direction="ltr">account.balance_changed</text></g><g stroke-linecap="round"><g transform="translate(677.36328125 459.37109375) rotate(0 -115.15625 60.13671875)"><path d="M0 0 C0.18 25.19, 0.35 50.38, 0.83 119.1 M0 0 C0.28 40.47, 0.56 80.95, 0.83 119.1 M0.83 119.1 C-60.14 119.41, -121.11 119.72, -231.14 120.27 M0.83 119.1 C-52.3 119.37, -105.44 119.64, -231.14 120.27" stroke="#000000" stroke-width="1" fill="none"></path></g><g transform="translate(677.36328125 459.37109375) rotate(0 -115.15625 60.13671875)"><path d="M-203 109.87 C-208.95 112.07, -214.91 114.27, -231.14 120.27 M-203 109.87 C-212.56 113.41, -222.13 116.94, -231.14 120.27" stroke="#000000" stroke-width="1" fill="none"></path></g><g transform="translate(677.36328125 459.37109375) rotate(0 -115.15625 60.13671875)"><path d="M-202.9 130.39 C-208.87 128.25, -214.85 126.11, -231.14 120.27 M-202.9 130.39 C-212.5 126.95, -222.09 123.51, -231.14 120.27" stroke="#000000" stroke-width="1" fill="none"></path></g></g><g transform="translate(529.78125 466.81640625) rotate(0 45.5 9)"><text x="0" y="14" font-family="Helvetica, Segoe UI Emoji" font-size="16px" fill="#000000" text-anchor="start" style="white-space: pre;" direction="ltr">account.paid</text></g><g stroke-linecap="round"><g transform="translate(676.94140625 579.36328125) rotate(0 -122.380859375 63.1796875)"><path d="M0 0 C0.64 42.98, 1.27 85.96, 1.87 126.36 M0 0 C0.4 26.89, 0.8 53.78, 1.87 126.36 M1.87 126.36 C-90.47 126.32, -182.8 126.28, -246.63 126.25 M1.87 126.36 C-51.12 126.34, -104.11 126.31, -246.63 126.25" stroke="#000000" stroke-width="1" fill="none"></path></g><g transform="translate(676.94140625 579.36328125) rotate(0 -122.380859375 63.1796875)"><path d="M-218.44 116 C-228.03 119.48, -237.62 122.97, -246.63 126.25 M-218.44 116 C-224.44 118.18, -230.44 120.36, -246.63 126.25" stroke="#000000" stroke-width="1" fill="none"></path></g><g transform="translate(676.94140625 579.36328125) rotate(0 -122.380859375 63.1796875)"><path d="M-218.45 136.52 C-228.03 133.03, -237.62 129.53, -246.63 126.25 M-218.45 136.52 C-224.45 134.33, -230.44 132.15, -246.63 126.25" stroke="#000000" stroke-width="1" fill="none"></path></g></g></svg>